<mxfile host="65bd71144e" pages="2">
    <diagram id="RVr1oot0b488US4d394E" name="Page-1">
        <mxGraphModel dx="692" dy="2138" grid="1" gridSize="10" guides="1" tooltips="1" connect="1" arrows="1" fold="1" page="1" pageScale="1" pageWidth="1600" pageHeight="900" background="#7D7D7D" math="0" shadow="0">
            <root>
                <mxCell id="0"/>
                <mxCell id="1" parent="0"/>
                <mxCell id="dL861pbHHW98_k1-BwGy-1" value="USER" style="ellipse;whiteSpace=wrap;html=1;aspect=fixed;" parent="1" vertex="1">
                    <mxGeometry x="40" y="400" width="150" height="150" as="geometry"/>
                </mxCell>
                <mxCell id="dL861pbHHW98_k1-BwGy-2" value="HOST" style="ellipse;whiteSpace=wrap;html=1;aspect=fixed;" parent="1" vertex="1">
                    <mxGeometry x="270" y="50" width="140" height="140" as="geometry"/>
                </mxCell>
                <mxCell id="EAE-r1h3n8rKNCchYZHm-413" style="edgeStyle=orthogonalEdgeStyle;rounded=0;orthogonalLoop=1;jettySize=auto;html=1;entryX=0.5;entryY=0;entryDx=0;entryDy=0;" parent="1" source="dL861pbHHW98_k1-BwGy-3" target="EAE-r1h3n8rKNCchYZHm-16" edge="1">
                    <mxGeometry relative="1" as="geometry"/>
                </mxCell>
                <mxCell id="EAE-r1h3n8rKNCchYZHm-415" style="edgeStyle=orthogonalEdgeStyle;rounded=0;orthogonalLoop=1;jettySize=auto;html=1;entryX=0;entryY=0.5;entryDx=0;entryDy=0;" parent="1" source="dL861pbHHW98_k1-BwGy-3" target="EAE-r1h3n8rKNCchYZHm-18" edge="1">
                    <mxGeometry relative="1" as="geometry"/>
                </mxCell>
                <mxCell id="dL861pbHHW98_k1-BwGy-3" value="HOME" style="ellipse;whiteSpace=wrap;html=1;aspect=fixed;" parent="1" vertex="1">
                    <mxGeometry x="855" y="-110" width="120" height="120" as="geometry"/>
                </mxCell>
                <mxCell id="EAE-r1h3n8rKNCchYZHm-366" style="edgeStyle=orthogonalEdgeStyle;rounded=0;orthogonalLoop=1;jettySize=auto;html=1;entryX=0.5;entryY=1;entryDx=0;entryDy=0;" parent="1" source="dL861pbHHW98_k1-BwGy-11" target="EAE-r1h3n8rKNCchYZHm-14" edge="1">
                    <mxGeometry relative="1" as="geometry"/>
                </mxCell>
                <mxCell id="dL861pbHHW98_k1-BwGy-11" value="RENTER" style="ellipse;whiteSpace=wrap;html=1;aspect=fixed;" parent="1" vertex="1">
                    <mxGeometry x="840" y="740" width="140" height="140" as="geometry"/>
                </mxCell>
                <mxCell id="dL861pbHHW98_k1-BwGy-13" value="REVIEW" style="ellipse;whiteSpace=wrap;html=1;aspect=fixed;" parent="1" vertex="1">
                    <mxGeometry x="600" y="415" width="130" height="130" as="geometry"/>
                </mxCell>
                <mxCell id="EAE-r1h3n8rKNCchYZHm-367" style="edgeStyle=orthogonalEdgeStyle;rounded=0;orthogonalLoop=1;jettySize=auto;html=1;entryX=0.5;entryY=0;entryDx=0;entryDy=0;" parent="1" source="dL861pbHHW98_k1-BwGy-14" target="EAE-r1h3n8rKNCchYZHm-14" edge="1">
                    <mxGeometry relative="1" as="geometry"/>
                </mxCell>
                <mxCell id="dL861pbHHW98_k1-BwGy-14" value="BOOKING" style="ellipse;whiteSpace=wrap;html=1;aspect=fixed;" parent="1" vertex="1">
                    <mxGeometry x="845" y="172" width="130" height="130" as="geometry"/>
                </mxCell>
                <mxCell id="dL861pbHHW98_k1-BwGy-58" style="edgeStyle=orthogonalEdgeStyle;rounded=0;orthogonalLoop=1;jettySize=auto;html=1;entryX=0.5;entryY=1;entryDx=0;entryDy=0;" parent="1" source="dL861pbHHW98_k1-BwGy-20" target="dL861pbHHW98_k1-BwGy-1" edge="1">
                    <mxGeometry relative="1" as="geometry">
                        <Array as="points">
                            <mxPoint x="115" y="730"/>
                            <mxPoint x="115" y="730"/>
                        </Array>
                    </mxGeometry>
                </mxCell>
                <mxCell id="dL861pbHHW98_k1-BwGy-20" value="&lt;div&gt;&lt;b&gt;WALLET&lt;/b&gt;&lt;/div&gt;" style="ellipse;whiteSpace=wrap;html=1;aspect=fixed;" parent="1" vertex="1">
                    <mxGeometry x="70" y="755" width="110" height="110" as="geometry"/>
                </mxCell>
                <mxCell id="dL861pbHHW98_k1-BwGy-21" value="HOME_HISTORY_LOG" style="ellipse;whiteSpace=wrap;html=1;aspect=fixed;" parent="1" vertex="1">
                    <mxGeometry x="1260" y="-130" width="160" height="160" as="geometry"/>
                </mxCell>
                <mxCell id="dL861pbHHW98_k1-BwGy-23" value="" style="endArrow=none;html=1;rounded=0;entryX=0;entryY=1;entryDx=0;entryDy=0;exitX=0.5;exitY=0;exitDx=0;exitDy=0;startArrow=none;" parent="1" source="EAE-r1h3n8rKNCchYZHm-4" target="dL861pbHHW98_k1-BwGy-2" edge="1">
                    <mxGeometry relative="1" as="geometry">
                        <mxPoint x="100" y="340" as="sourcePoint"/>
                        <mxPoint x="260" y="340" as="targetPoint"/>
                    </mxGeometry>
                </mxCell>
                <mxCell id="dL861pbHHW98_k1-BwGy-24" value="1" style="text;html=1;align=center;verticalAlign=middle;resizable=0;points=[];autosize=1;strokeColor=none;" parent="1" vertex="1">
                    <mxGeometry x="90" y="370" width="20" height="20" as="geometry"/>
                </mxCell>
                <mxCell id="dL861pbHHW98_k1-BwGy-25" value="1" style="text;html=1;align=center;verticalAlign=middle;resizable=0;points=[];autosize=1;strokeColor=none;" parent="1" vertex="1">
                    <mxGeometry x="250" y="140" width="20" height="20" as="geometry"/>
                </mxCell>
                <mxCell id="dL861pbHHW98_k1-BwGy-27" value="" style="endArrow=none;html=1;rounded=0;entryX=0;entryY=0;entryDx=0;entryDy=0;startArrow=none;" parent="1" source="EAE-r1h3n8rKNCchYZHm-1" target="dL861pbHHW98_k1-BwGy-11" edge="1">
                    <mxGeometry relative="1" as="geometry">
                        <mxPoint x="170" y="550" as="sourcePoint"/>
                        <mxPoint x="260" y="640" as="targetPoint"/>
                    </mxGeometry>
                </mxCell>
                <mxCell id="dL861pbHHW98_k1-BwGy-28" value="1" style="text;html=1;align=center;verticalAlign=middle;resizable=0;points=[];autosize=1;strokeColor=none;" parent="1" vertex="1">
                    <mxGeometry x="170" y="530" width="20" height="20" as="geometry"/>
                </mxCell>
                <mxCell id="dL861pbHHW98_k1-BwGy-31" value="1" style="text;html=1;align=center;verticalAlign=middle;resizable=0;points=[];autosize=1;strokeColor=none;" parent="1" vertex="1">
                    <mxGeometry x="860" y="720" width="20" height="20" as="geometry"/>
                </mxCell>
                <mxCell id="dL861pbHHW98_k1-BwGy-41" value="1" style="text;html=1;align=center;verticalAlign=middle;resizable=0;points=[];autosize=1;strokeColor=none;" parent="1" vertex="1">
                    <mxGeometry x="820" y="760" width="20" height="20" as="geometry"/>
                </mxCell>
                <mxCell id="dL861pbHHW98_k1-BwGy-42" value="N" style="text;html=1;align=center;verticalAlign=middle;resizable=0;points=[];autosize=1;strokeColor=none;" parent="1" vertex="1">
                    <mxGeometry x="850" y="160" width="20" height="20" as="geometry"/>
                </mxCell>
                <mxCell id="dL861pbHHW98_k1-BwGy-44" value="N" style="text;html=1;align=center;verticalAlign=middle;resizable=0;points=[];autosize=1;strokeColor=none;" parent="1" vertex="1">
                    <mxGeometry x="855" y="310" width="20" height="20" as="geometry"/>
                </mxCell>
                <mxCell id="dL861pbHHW98_k1-BwGy-55" value="1" style="text;html=1;align=center;verticalAlign=middle;resizable=0;points=[];autosize=1;strokeColor=none;" parent="1" vertex="1">
                    <mxGeometry x="855" width="20" height="20" as="geometry"/>
                </mxCell>
                <mxCell id="dL861pbHHW98_k1-BwGy-59" value="1" style="text;html=1;align=center;verticalAlign=middle;resizable=0;points=[];autosize=1;strokeColor=none;" parent="1" vertex="1">
                    <mxGeometry x="80" y="550" width="20" height="20" as="geometry"/>
                </mxCell>
                <mxCell id="dL861pbHHW98_k1-BwGy-60" value="1" style="text;html=1;align=center;verticalAlign=middle;resizable=0;points=[];autosize=1;strokeColor=none;" parent="1" vertex="1">
                    <mxGeometry x="80" y="740" width="20" height="20" as="geometry"/>
                </mxCell>
                <mxCell id="dL861pbHHW98_k1-BwGy-63" value="1" style="text;html=1;align=center;verticalAlign=middle;resizable=0;points=[];autosize=1;strokeColor=none;rotation=0;" parent="1" vertex="1">
                    <mxGeometry x="920" y="720" width="20" height="20" as="geometry"/>
                </mxCell>
                <mxCell id="EAE-r1h3n8rKNCchYZHm-1" value="IS" style="shape=rhombus;perimeter=rhombusPerimeter;whiteSpace=wrap;html=1;align=center;" parent="1" vertex="1">
                    <mxGeometry x="430" y="610" width="120" height="60" as="geometry"/>
                </mxCell>
                <mxCell id="EAE-r1h3n8rKNCchYZHm-2" value="" style="endArrow=none;html=1;rounded=0;entryX=0;entryY=0;entryDx=0;entryDy=0;" parent="1" source="dL861pbHHW98_k1-BwGy-1" target="EAE-r1h3n8rKNCchYZHm-1" edge="1">
                    <mxGeometry relative="1" as="geometry">
                        <mxPoint x="176.82487006929614" y="517.4580433006008" as="sourcePoint"/>
                        <mxPoint x="530.5025253169333" y="760.5025253169331" as="targetPoint"/>
                    </mxGeometry>
                </mxCell>
                <mxCell id="EAE-r1h3n8rKNCchYZHm-3" value="OWNS" style="shape=rhombus;perimeter=rhombusPerimeter;whiteSpace=wrap;html=1;align=center;" parent="1" vertex="1">
                    <mxGeometry x="55" y="610" width="120" height="60" as="geometry"/>
                </mxCell>
                <mxCell id="EAE-r1h3n8rKNCchYZHm-4" value="IS" style="shape=rhombus;perimeter=rhombusPerimeter;whiteSpace=wrap;html=1;align=center;" parent="1" vertex="1">
                    <mxGeometry x="170" y="250" width="120" height="60" as="geometry"/>
                </mxCell>
                <mxCell id="EAE-r1h3n8rKNCchYZHm-5" value="" style="endArrow=none;html=1;rounded=0;entryX=0;entryY=1;entryDx=0;entryDy=0;exitX=0.5;exitY=0;exitDx=0;exitDy=0;" parent="1" source="dL861pbHHW98_k1-BwGy-1" target="EAE-r1h3n8rKNCchYZHm-4" edge="1">
                    <mxGeometry relative="1" as="geometry">
                        <mxPoint x="115" y="400" as="sourcePoint"/>
                        <mxPoint x="290.50252531694196" y="169.4974746830585" as="targetPoint"/>
                    </mxGeometry>
                </mxCell>
                <mxCell id="EAE-r1h3n8rKNCchYZHm-14" value="MAKES" style="shape=rhombus;perimeter=rhombusPerimeter;whiteSpace=wrap;html=1;align=center;" parent="1" vertex="1">
                    <mxGeometry x="850" y="465" width="120" height="60" as="geometry"/>
                </mxCell>
                <mxCell id="EAE-r1h3n8rKNCchYZHm-414" style="edgeStyle=orthogonalEdgeStyle;rounded=0;orthogonalLoop=1;jettySize=auto;html=1;entryX=0.5;entryY=0;entryDx=0;entryDy=0;" parent="1" source="EAE-r1h3n8rKNCchYZHm-16" target="dL861pbHHW98_k1-BwGy-14" edge="1">
                    <mxGeometry relative="1" as="geometry">
                        <Array as="points">
                            <mxPoint x="915" y="172"/>
                        </Array>
                    </mxGeometry>
                </mxCell>
                <mxCell id="EAE-r1h3n8rKNCchYZHm-16" value="HAS" style="shape=rhombus;perimeter=rhombusPerimeter;whiteSpace=wrap;html=1;align=center;" parent="1" vertex="1">
                    <mxGeometry x="855" y="50" width="120" height="60" as="geometry"/>
                </mxCell>
                <mxCell id="EAE-r1h3n8rKNCchYZHm-416" style="edgeStyle=orthogonalEdgeStyle;rounded=0;orthogonalLoop=1;jettySize=auto;html=1;exitX=1;exitY=0.5;exitDx=0;exitDy=0;entryX=0;entryY=0.5;entryDx=0;entryDy=0;" parent="1" source="EAE-r1h3n8rKNCchYZHm-18" target="dL861pbHHW98_k1-BwGy-21" edge="1">
                    <mxGeometry relative="1" as="geometry"/>
                </mxCell>
                <mxCell id="EAE-r1h3n8rKNCchYZHm-18" value="HAS" style="shape=rhombus;perimeter=rhombusPerimeter;whiteSpace=wrap;html=1;align=center;" parent="1" vertex="1">
                    <mxGeometry x="1060" y="-80" width="120" height="60" as="geometry"/>
                </mxCell>
                <mxCell id="EAE-r1h3n8rKNCchYZHm-46" value="user" style="shape=table;startSize=30;container=1;collapsible=1;childLayout=tableLayout;fixedRows=1;rowLines=0;fontStyle=1;align=center;resizeLast=1;" parent="1" vertex="1">
                    <mxGeometry x="1660" y="40" width="180" height="200" as="geometry">
                        <mxRectangle x="1660" y="40" width="70" height="30" as="alternateBounds"/>
                    </mxGeometry>
                </mxCell>
                <mxCell id="EAE-r1h3n8rKNCchYZHm-47" value="" style="shape=partialRectangle;collapsible=0;dropTarget=0;pointerEvents=0;fillColor=none;top=0;left=0;bottom=1;right=0;points=[[0,0.5],[1,0.5]];portConstraint=eastwest;" parent="EAE-r1h3n8rKNCchYZHm-46" vertex="1">
                    <mxGeometry y="30" width="180" height="30" as="geometry"/>
                </mxCell>
                <mxCell id="EAE-r1h3n8rKNCchYZHm-48" value="PK" style="shape=partialRectangle;connectable=0;fillColor=none;top=0;left=0;bottom=0;right=0;fontStyle=1;overflow=hidden;" parent="EAE-r1h3n8rKNCchYZHm-47" vertex="1">
                    <mxGeometry width="30" height="30" as="geometry"/>
                </mxCell>
                <mxCell id="EAE-r1h3n8rKNCchYZHm-49" value="UniqueID" style="shape=partialRectangle;connectable=0;fillColor=none;top=0;left=0;bottom=0;right=0;align=left;spacingLeft=6;fontStyle=5;overflow=hidden;" parent="EAE-r1h3n8rKNCchYZHm-47" vertex="1">
                    <mxGeometry x="30" width="150" height="30" as="geometry"/>
                </mxCell>
                <mxCell id="EAE-r1h3n8rKNCchYZHm-50" value="" style="shape=partialRectangle;collapsible=0;dropTarget=0;pointerEvents=0;fillColor=none;top=0;left=0;bottom=0;right=0;points=[[0,0.5],[1,0.5]];portConstraint=eastwest;" parent="EAE-r1h3n8rKNCchYZHm-46" vertex="1">
                    <mxGeometry y="60" width="180" height="30" as="geometry"/>
                </mxCell>
                <mxCell id="EAE-r1h3n8rKNCchYZHm-51" value="" style="shape=partialRectangle;connectable=0;fillColor=none;top=0;left=0;bottom=0;right=0;editable=1;overflow=hidden;" parent="EAE-r1h3n8rKNCchYZHm-50" vertex="1">
                    <mxGeometry width="30" height="30" as="geometry"/>
                </mxCell>
                <mxCell id="EAE-r1h3n8rKNCchYZHm-52" value="first_name STRING" style="shape=partialRectangle;connectable=0;fillColor=none;top=0;left=0;bottom=0;right=0;align=left;spacingLeft=6;overflow=hidden;" parent="EAE-r1h3n8rKNCchYZHm-50" vertex="1">
                    <mxGeometry x="30" width="150" height="30" as="geometry"/>
                </mxCell>
                <mxCell id="EAE-r1h3n8rKNCchYZHm-53" value="" style="shape=partialRectangle;collapsible=0;dropTarget=0;pointerEvents=0;fillColor=none;top=0;left=0;bottom=0;right=0;points=[[0,0.5],[1,0.5]];portConstraint=eastwest;" parent="EAE-r1h3n8rKNCchYZHm-46" vertex="1">
                    <mxGeometry y="90" width="180" height="30" as="geometry"/>
                </mxCell>
                <mxCell id="EAE-r1h3n8rKNCchYZHm-54" value="" style="shape=partialRectangle;connectable=0;fillColor=none;top=0;left=0;bottom=0;right=0;editable=1;overflow=hidden;" parent="EAE-r1h3n8rKNCchYZHm-53" vertex="1">
                    <mxGeometry width="30" height="30" as="geometry"/>
                </mxCell>
                <mxCell id="EAE-r1h3n8rKNCchYZHm-55" value="last_name STRING" style="shape=partialRectangle;connectable=0;fillColor=none;top=0;left=0;bottom=0;right=0;align=left;spacingLeft=6;overflow=hidden;" parent="EAE-r1h3n8rKNCchYZHm-53" vertex="1">
                    <mxGeometry x="30" width="150" height="30" as="geometry"/>
                </mxCell>
                <mxCell id="EAE-r1h3n8rKNCchYZHm-56" value="" style="shape=partialRectangle;collapsible=0;dropTarget=0;pointerEvents=0;fillColor=none;top=0;left=0;bottom=0;right=0;points=[[0,0.5],[1,0.5]];portConstraint=eastwest;" parent="EAE-r1h3n8rKNCchYZHm-46" vertex="1">
                    <mxGeometry y="120" width="180" height="30" as="geometry"/>
                </mxCell>
                <mxCell id="EAE-r1h3n8rKNCchYZHm-57" value="" style="shape=partialRectangle;connectable=0;fillColor=none;top=0;left=0;bottom=0;right=0;editable=1;overflow=hidden;" parent="EAE-r1h3n8rKNCchYZHm-56" vertex="1">
                    <mxGeometry width="30" height="30" as="geometry"/>
                </mxCell>
                <mxCell id="EAE-r1h3n8rKNCchYZHm-58" value="email STRING" style="shape=partialRectangle;connectable=0;fillColor=none;top=0;left=0;bottom=0;right=0;align=left;spacingLeft=6;overflow=hidden;" parent="EAE-r1h3n8rKNCchYZHm-56" vertex="1">
                    <mxGeometry x="30" width="150" height="30" as="geometry"/>
                </mxCell>
                <mxCell id="EAE-r1h3n8rKNCchYZHm-59" value="home" style="shape=table;startSize=30;container=1;collapsible=1;childLayout=tableLayout;fixedRows=1;rowLines=0;fontStyle=1;align=center;resizeLast=1;" parent="1" vertex="1">
                    <mxGeometry x="2200" y="40" width="200" height="480" as="geometry"/>
                </mxCell>
                <mxCell id="EAE-r1h3n8rKNCchYZHm-60" value="" style="shape=partialRectangle;collapsible=0;dropTarget=0;pointerEvents=0;fillColor=none;top=0;left=0;bottom=1;right=0;points=[[0,0.5],[1,0.5]];portConstraint=eastwest;" parent="EAE-r1h3n8rKNCchYZHm-59" vertex="1">
                    <mxGeometry y="30" width="200" height="30" as="geometry"/>
                </mxCell>
                <mxCell id="EAE-r1h3n8rKNCchYZHm-61" value="PK" style="shape=partialRectangle;connectable=0;fillColor=none;top=0;left=0;bottom=0;right=0;fontStyle=1;overflow=hidden;" parent="EAE-r1h3n8rKNCchYZHm-60" vertex="1">
                    <mxGeometry width="30" height="30" as="geometry"/>
                </mxCell>
                <mxCell id="EAE-r1h3n8rKNCchYZHm-62" value="UniqueID" style="shape=partialRectangle;connectable=0;fillColor=none;top=0;left=0;bottom=0;right=0;align=left;spacingLeft=6;fontStyle=5;overflow=hidden;" parent="EAE-r1h3n8rKNCchYZHm-60" vertex="1">
                    <mxGeometry x="30" width="170" height="30" as="geometry"/>
                </mxCell>
                <mxCell id="EAE-r1h3n8rKNCchYZHm-63" value="" style="shape=partialRectangle;collapsible=0;dropTarget=0;pointerEvents=0;fillColor=none;top=0;left=0;bottom=0;right=0;points=[[0,0.5],[1,0.5]];portConstraint=eastwest;" parent="EAE-r1h3n8rKNCchYZHm-59" vertex="1">
                    <mxGeometry y="60" width="200" height="30" as="geometry"/>
                </mxCell>
                <mxCell id="EAE-r1h3n8rKNCchYZHm-64" value="FK" style="shape=partialRectangle;connectable=0;fillColor=none;top=0;left=0;bottom=0;right=0;editable=1;overflow=hidden;" parent="EAE-r1h3n8rKNCchYZHm-63" vertex="1">
                    <mxGeometry width="30" height="30" as="geometry"/>
                </mxCell>
                <mxCell id="EAE-r1h3n8rKNCchYZHm-65" value="host_id" style="shape=partialRectangle;connectable=0;fillColor=none;top=0;left=0;bottom=0;right=0;align=left;spacingLeft=6;overflow=hidden;" parent="EAE-r1h3n8rKNCchYZHm-63" vertex="1">
                    <mxGeometry x="30" width="170" height="30" as="geometry"/>
                </mxCell>
                <mxCell id="EAE-r1h3n8rKNCchYZHm-66" value="" style="shape=partialRectangle;collapsible=0;dropTarget=0;pointerEvents=0;fillColor=none;top=0;left=0;bottom=0;right=0;points=[[0,0.5],[1,0.5]];portConstraint=eastwest;" parent="EAE-r1h3n8rKNCchYZHm-59" vertex="1">
                    <mxGeometry y="90" width="200" height="30" as="geometry"/>
                </mxCell>
                <mxCell id="EAE-r1h3n8rKNCchYZHm-67" value="" style="shape=partialRectangle;connectable=0;fillColor=none;top=0;left=0;bottom=0;right=0;editable=1;overflow=hidden;" parent="EAE-r1h3n8rKNCchYZHm-66" vertex="1">
                    <mxGeometry width="30" height="30" as="geometry"/>
                </mxCell>
                <mxCell id="EAE-r1h3n8rKNCchYZHm-68" value="address STRING" style="shape=partialRectangle;connectable=0;fillColor=none;top=0;left=0;bottom=0;right=0;align=left;spacingLeft=6;overflow=hidden;" parent="EAE-r1h3n8rKNCchYZHm-66" vertex="1">
                    <mxGeometry x="30" width="170" height="30" as="geometry"/>
                </mxCell>
                <mxCell id="EAE-r1h3n8rKNCchYZHm-69" value="" style="shape=partialRectangle;collapsible=0;dropTarget=0;pointerEvents=0;fillColor=none;top=0;left=0;bottom=0;right=0;points=[[0,0.5],[1,0.5]];portConstraint=eastwest;" parent="EAE-r1h3n8rKNCchYZHm-59" vertex="1">
                    <mxGeometry y="120" width="200" height="30" as="geometry"/>
                </mxCell>
                <mxCell id="EAE-r1h3n8rKNCchYZHm-70" value="" style="shape=partialRectangle;connectable=0;fillColor=none;top=0;left=0;bottom=0;right=0;editable=1;overflow=hidden;" parent="EAE-r1h3n8rKNCchYZHm-69" vertex="1">
                    <mxGeometry width="30" height="30" as="geometry"/>
                </mxCell>
                <mxCell id="EAE-r1h3n8rKNCchYZHm-71" value="city STRING" style="shape=partialRectangle;connectable=0;fillColor=none;top=0;left=0;bottom=0;right=0;align=left;spacingLeft=6;overflow=hidden;" parent="EAE-r1h3n8rKNCchYZHm-69" vertex="1">
                    <mxGeometry x="30" width="170" height="30" as="geometry"/>
                </mxCell>
                <mxCell id="EAE-r1h3n8rKNCchYZHm-72" value="host_review" style="shape=table;startSize=30;container=1;collapsible=1;childLayout=tableLayout;fixedRows=1;rowLines=0;fontStyle=1;align=center;resizeLast=1;" parent="1" vertex="1">
                    <mxGeometry x="1920" y="550" width="170" height="140" as="geometry"/>
                </mxCell>
                <mxCell id="EAE-r1h3n8rKNCchYZHm-73" value="" style="shape=partialRectangle;collapsible=0;dropTarget=0;pointerEvents=0;fillColor=none;top=0;left=0;bottom=1;right=0;points=[[0,0.5],[1,0.5]];portConstraint=eastwest;" parent="EAE-r1h3n8rKNCchYZHm-72" vertex="1">
                    <mxGeometry y="30" width="170" height="30" as="geometry"/>
                </mxCell>
                <mxCell id="EAE-r1h3n8rKNCchYZHm-74" value="PK" style="shape=partialRectangle;connectable=0;fillColor=none;top=0;left=0;bottom=0;right=0;fontStyle=1;overflow=hidden;" parent="EAE-r1h3n8rKNCchYZHm-73" vertex="1">
                    <mxGeometry width="30" height="30" as="geometry"/>
                </mxCell>
                <mxCell id="EAE-r1h3n8rKNCchYZHm-75" value="UniqueID" style="shape=partialRectangle;connectable=0;fillColor=none;top=0;left=0;bottom=0;right=0;align=left;spacingLeft=6;fontStyle=5;overflow=hidden;" parent="EAE-r1h3n8rKNCchYZHm-73" vertex="1">
                    <mxGeometry x="30" width="140" height="30" as="geometry"/>
                </mxCell>
                <mxCell id="EAE-r1h3n8rKNCchYZHm-229" value="" style="shape=partialRectangle;collapsible=0;dropTarget=0;pointerEvents=0;fillColor=none;top=0;left=0;bottom=0;right=0;points=[[0,0.5],[1,0.5]];portConstraint=eastwest;" parent="EAE-r1h3n8rKNCchYZHm-72" vertex="1">
                    <mxGeometry y="60" width="170" height="30" as="geometry"/>
                </mxCell>
                <mxCell id="EAE-r1h3n8rKNCchYZHm-230" value="FK" style="shape=partialRectangle;connectable=0;fillColor=none;top=0;left=0;bottom=0;right=0;editable=1;overflow=hidden;" parent="EAE-r1h3n8rKNCchYZHm-229" vertex="1">
                    <mxGeometry width="30" height="30" as="geometry"/>
                </mxCell>
                <mxCell id="EAE-r1h3n8rKNCchYZHm-231" value="host_id INT" style="shape=partialRectangle;connectable=0;fillColor=none;top=0;left=0;bottom=0;right=0;align=left;spacingLeft=6;overflow=hidden;" parent="EAE-r1h3n8rKNCchYZHm-229" vertex="1">
                    <mxGeometry x="30" width="140" height="30" as="geometry"/>
                </mxCell>
                <mxCell id="EAE-r1h3n8rKNCchYZHm-251" value="" style="shape=partialRectangle;collapsible=0;dropTarget=0;pointerEvents=0;fillColor=none;top=0;left=0;bottom=0;right=0;points=[[0,0.5],[1,0.5]];portConstraint=eastwest;" parent="EAE-r1h3n8rKNCchYZHm-72" vertex="1">
                    <mxGeometry y="90" width="170" height="30" as="geometry"/>
                </mxCell>
                <mxCell id="EAE-r1h3n8rKNCchYZHm-252" value="FK" style="shape=partialRectangle;connectable=0;fillColor=none;top=0;left=0;bottom=0;right=0;editable=1;overflow=hidden;" parent="EAE-r1h3n8rKNCchYZHm-251" vertex="1">
                    <mxGeometry width="30" height="30" as="geometry"/>
                </mxCell>
                <mxCell id="EAE-r1h3n8rKNCchYZHm-253" value="review_id INT" style="shape=partialRectangle;connectable=0;fillColor=none;top=0;left=0;bottom=0;right=0;align=left;spacingLeft=6;overflow=hidden;" parent="EAE-r1h3n8rKNCchYZHm-251" vertex="1">
                    <mxGeometry x="30" width="140" height="30" as="geometry"/>
                </mxCell>
                <mxCell id="EAE-r1h3n8rKNCchYZHm-85" value="wallet" style="shape=table;startSize=30;container=1;collapsible=1;childLayout=tableLayout;fixedRows=1;rowLines=0;fontStyle=1;align=center;resizeLast=1;" parent="1" vertex="1">
                    <mxGeometry x="1950" y="40" width="180" height="150" as="geometry"/>
                </mxCell>
                <mxCell id="EAE-r1h3n8rKNCchYZHm-86" value="" style="shape=partialRectangle;collapsible=0;dropTarget=0;pointerEvents=0;fillColor=none;top=0;left=0;bottom=1;right=0;points=[[0,0.5],[1,0.5]];portConstraint=eastwest;" parent="EAE-r1h3n8rKNCchYZHm-85" vertex="1">
                    <mxGeometry y="30" width="180" height="30" as="geometry"/>
                </mxCell>
                <mxCell id="EAE-r1h3n8rKNCchYZHm-87" value="PK" style="shape=partialRectangle;connectable=0;fillColor=none;top=0;left=0;bottom=0;right=0;fontStyle=1;overflow=hidden;" parent="EAE-r1h3n8rKNCchYZHm-86" vertex="1">
                    <mxGeometry width="30" height="30" as="geometry"/>
                </mxCell>
                <mxCell id="EAE-r1h3n8rKNCchYZHm-88" value="UniqueID" style="shape=partialRectangle;connectable=0;fillColor=none;top=0;left=0;bottom=0;right=0;align=left;spacingLeft=6;fontStyle=5;overflow=hidden;" parent="EAE-r1h3n8rKNCchYZHm-86" vertex="1">
                    <mxGeometry x="30" width="150" height="30" as="geometry"/>
                </mxCell>
                <mxCell id="EAE-r1h3n8rKNCchYZHm-89" value="" style="shape=partialRectangle;collapsible=0;dropTarget=0;pointerEvents=0;fillColor=none;top=0;left=0;bottom=0;right=0;points=[[0,0.5],[1,0.5]];portConstraint=eastwest;" parent="EAE-r1h3n8rKNCchYZHm-85" vertex="1">
                    <mxGeometry y="60" width="180" height="30" as="geometry"/>
                </mxCell>
                <mxCell id="EAE-r1h3n8rKNCchYZHm-90" value="FK" style="shape=partialRectangle;connectable=0;fillColor=none;top=0;left=0;bottom=0;right=0;editable=1;overflow=hidden;" parent="EAE-r1h3n8rKNCchYZHm-89" vertex="1">
                    <mxGeometry width="30" height="30" as="geometry"/>
                </mxCell>
                <mxCell id="EAE-r1h3n8rKNCchYZHm-91" value="user_id" style="shape=partialRectangle;connectable=0;fillColor=none;top=0;left=0;bottom=0;right=0;align=left;spacingLeft=6;overflow=hidden;" parent="EAE-r1h3n8rKNCchYZHm-89" vertex="1">
                    <mxGeometry x="30" width="150" height="30" as="geometry"/>
                </mxCell>
                <mxCell id="EAE-r1h3n8rKNCchYZHm-92" value="" style="shape=partialRectangle;collapsible=0;dropTarget=0;pointerEvents=0;fillColor=none;top=0;left=0;bottom=0;right=0;points=[[0,0.5],[1,0.5]];portConstraint=eastwest;" parent="EAE-r1h3n8rKNCchYZHm-85" vertex="1">
                    <mxGeometry y="90" width="180" height="30" as="geometry"/>
                </mxCell>
                <mxCell id="EAE-r1h3n8rKNCchYZHm-93" value="" style="shape=partialRectangle;connectable=0;fillColor=none;top=0;left=0;bottom=0;right=0;editable=1;overflow=hidden;" parent="EAE-r1h3n8rKNCchYZHm-92" vertex="1">
                    <mxGeometry width="30" height="30" as="geometry"/>
                </mxCell>
                <mxCell id="EAE-r1h3n8rKNCchYZHm-94" value="token_amount INT" style="shape=partialRectangle;connectable=0;fillColor=none;top=0;left=0;bottom=0;right=0;align=left;spacingLeft=6;overflow=hidden;" parent="EAE-r1h3n8rKNCchYZHm-92" vertex="1">
                    <mxGeometry x="30" width="150" height="30" as="geometry"/>
                </mxCell>
                <mxCell id="EAE-r1h3n8rKNCchYZHm-95" value="" style="shape=partialRectangle;collapsible=0;dropTarget=0;pointerEvents=0;fillColor=none;top=0;left=0;bottom=0;right=0;points=[[0,0.5],[1,0.5]];portConstraint=eastwest;" parent="EAE-r1h3n8rKNCchYZHm-85" vertex="1">
                    <mxGeometry y="120" width="180" height="30" as="geometry"/>
                </mxCell>
                <mxCell id="EAE-r1h3n8rKNCchYZHm-96" value="" style="shape=partialRectangle;connectable=0;fillColor=none;top=0;left=0;bottom=0;right=0;editable=1;overflow=hidden;" parent="EAE-r1h3n8rKNCchYZHm-95" vertex="1">
                    <mxGeometry width="30" height="30" as="geometry"/>
                </mxCell>
                <mxCell id="EAE-r1h3n8rKNCchYZHm-97" value="" style="shape=partialRectangle;connectable=0;fillColor=none;top=0;left=0;bottom=0;right=0;align=left;spacingLeft=6;overflow=hidden;" parent="EAE-r1h3n8rKNCchYZHm-95" vertex="1">
                    <mxGeometry x="30" width="150" height="30" as="geometry"/>
                </mxCell>
                <mxCell id="EAE-r1h3n8rKNCchYZHm-98" value="host" style="shape=table;startSize=30;container=1;collapsible=1;childLayout=tableLayout;fixedRows=1;rowLines=0;fontStyle=1;align=center;resizeLast=1;" parent="1" vertex="1">
                    <mxGeometry x="1660" y="270" width="180" height="90" as="geometry"/>
                </mxCell>
                <mxCell id="EAE-r1h3n8rKNCchYZHm-99" value="" style="shape=partialRectangle;collapsible=0;dropTarget=0;pointerEvents=0;fillColor=none;top=0;left=0;bottom=1;right=0;points=[[0,0.5],[1,0.5]];portConstraint=eastwest;" parent="EAE-r1h3n8rKNCchYZHm-98" vertex="1">
                    <mxGeometry y="30" width="180" height="30" as="geometry"/>
                </mxCell>
                <mxCell id="EAE-r1h3n8rKNCchYZHm-100" value="PK" style="shape=partialRectangle;connectable=0;fillColor=none;top=0;left=0;bottom=0;right=0;fontStyle=1;overflow=hidden;" parent="EAE-r1h3n8rKNCchYZHm-99" vertex="1">
                    <mxGeometry width="30" height="30" as="geometry"/>
                </mxCell>
                <mxCell id="EAE-r1h3n8rKNCchYZHm-101" value="UniqueID" style="shape=partialRectangle;connectable=0;fillColor=none;top=0;left=0;bottom=0;right=0;align=left;spacingLeft=6;fontStyle=5;overflow=hidden;" parent="EAE-r1h3n8rKNCchYZHm-99" vertex="1">
                    <mxGeometry x="30" width="150" height="30" as="geometry"/>
                </mxCell>
                <mxCell id="EAE-r1h3n8rKNCchYZHm-102" value="" style="shape=partialRectangle;collapsible=0;dropTarget=0;pointerEvents=0;fillColor=none;top=0;left=0;bottom=0;right=0;points=[[0,0.5],[1,0.5]];portConstraint=eastwest;" parent="EAE-r1h3n8rKNCchYZHm-98" vertex="1">
                    <mxGeometry y="60" width="180" height="30" as="geometry"/>
                </mxCell>
                <mxCell id="EAE-r1h3n8rKNCchYZHm-103" value="FK" style="shape=partialRectangle;connectable=0;fillColor=none;top=0;left=0;bottom=0;right=0;editable=1;overflow=hidden;" parent="EAE-r1h3n8rKNCchYZHm-102" vertex="1">
                    <mxGeometry width="30" height="30" as="geometry"/>
                </mxCell>
                <mxCell id="EAE-r1h3n8rKNCchYZHm-104" value="user_id" style="shape=partialRectangle;connectable=0;fillColor=none;top=0;left=0;bottom=0;right=0;align=left;spacingLeft=6;overflow=hidden;" parent="EAE-r1h3n8rKNCchYZHm-102" vertex="1">
                    <mxGeometry x="30" width="150" height="30" as="geometry"/>
                </mxCell>
                <mxCell id="EAE-r1h3n8rKNCchYZHm-111" value="renter" style="shape=table;startSize=30;container=1;collapsible=1;childLayout=tableLayout;fixedRows=1;rowLines=0;fontStyle=1;align=center;resizeLast=1;" parent="1" vertex="1">
                    <mxGeometry x="1660" y="400" width="180" height="90" as="geometry"/>
                </mxCell>
                <mxCell id="EAE-r1h3n8rKNCchYZHm-112" value="" style="shape=partialRectangle;collapsible=0;dropTarget=0;pointerEvents=0;fillColor=none;top=0;left=0;bottom=1;right=0;points=[[0,0.5],[1,0.5]];portConstraint=eastwest;" parent="EAE-r1h3n8rKNCchYZHm-111" vertex="1">
                    <mxGeometry y="30" width="180" height="30" as="geometry"/>
                </mxCell>
                <mxCell id="EAE-r1h3n8rKNCchYZHm-113" value="PK" style="shape=partialRectangle;connectable=0;fillColor=none;top=0;left=0;bottom=0;right=0;fontStyle=1;overflow=hidden;" parent="EAE-r1h3n8rKNCchYZHm-112" vertex="1">
                    <mxGeometry width="30" height="30" as="geometry"/>
                </mxCell>
                <mxCell id="EAE-r1h3n8rKNCchYZHm-114" value="UniqueID" style="shape=partialRectangle;connectable=0;fillColor=none;top=0;left=0;bottom=0;right=0;align=left;spacingLeft=6;fontStyle=5;overflow=hidden;" parent="EAE-r1h3n8rKNCchYZHm-112" vertex="1">
                    <mxGeometry x="30" width="150" height="30" as="geometry"/>
                </mxCell>
                <mxCell id="EAE-r1h3n8rKNCchYZHm-115" value="" style="shape=partialRectangle;collapsible=0;dropTarget=0;pointerEvents=0;fillColor=none;top=0;left=0;bottom=0;right=0;points=[[0,0.5],[1,0.5]];portConstraint=eastwest;" parent="EAE-r1h3n8rKNCchYZHm-111" vertex="1">
                    <mxGeometry y="60" width="180" height="30" as="geometry"/>
                </mxCell>
                <mxCell id="EAE-r1h3n8rKNCchYZHm-116" value="FK" style="shape=partialRectangle;connectable=0;fillColor=none;top=0;left=0;bottom=0;right=0;editable=1;overflow=hidden;" parent="EAE-r1h3n8rKNCchYZHm-115" vertex="1">
                    <mxGeometry width="30" height="30" as="geometry"/>
                </mxCell>
                <mxCell id="EAE-r1h3n8rKNCchYZHm-117" value="user_id" style="shape=partialRectangle;connectable=0;fillColor=none;top=0;left=0;bottom=0;right=0;align=left;spacingLeft=6;overflow=hidden;" parent="EAE-r1h3n8rKNCchYZHm-115" vertex="1">
                    <mxGeometry x="30" width="150" height="30" as="geometry"/>
                </mxCell>
                <mxCell id="EAE-r1h3n8rKNCchYZHm-137" value="BOOKING" style="shape=table;startSize=30;container=1;collapsible=1;childLayout=tableLayout;fixedRows=1;rowLines=0;fontStyle=1;align=center;resizeLast=1;" parent="1" vertex="1">
                    <mxGeometry x="2500" y="42" width="200" height="260" as="geometry"/>
                </mxCell>
                <mxCell id="EAE-r1h3n8rKNCchYZHm-138" value="" style="shape=partialRectangle;collapsible=0;dropTarget=0;pointerEvents=0;fillColor=none;top=0;left=0;bottom=1;right=0;points=[[0,0.5],[1,0.5]];portConstraint=eastwest;" parent="EAE-r1h3n8rKNCchYZHm-137" vertex="1">
                    <mxGeometry y="30" width="200" height="30" as="geometry"/>
                </mxCell>
                <mxCell id="EAE-r1h3n8rKNCchYZHm-139" value="PK" style="shape=partialRectangle;connectable=0;fillColor=none;top=0;left=0;bottom=0;right=0;fontStyle=1;overflow=hidden;" parent="EAE-r1h3n8rKNCchYZHm-138" vertex="1">
                    <mxGeometry width="30" height="30" as="geometry"/>
                </mxCell>
                <mxCell id="EAE-r1h3n8rKNCchYZHm-140" value="UniqueID" style="shape=partialRectangle;connectable=0;fillColor=none;top=0;left=0;bottom=0;right=0;align=left;spacingLeft=6;fontStyle=5;overflow=hidden;" parent="EAE-r1h3n8rKNCchYZHm-138" vertex="1">
                    <mxGeometry x="30" width="170" height="30" as="geometry"/>
                </mxCell>
                <mxCell id="EAE-r1h3n8rKNCchYZHm-141" value="" style="shape=partialRectangle;collapsible=0;dropTarget=0;pointerEvents=0;fillColor=none;top=0;left=0;bottom=0;right=0;points=[[0,0.5],[1,0.5]];portConstraint=eastwest;" parent="EAE-r1h3n8rKNCchYZHm-137" vertex="1">
                    <mxGeometry y="60" width="200" height="30" as="geometry"/>
                </mxCell>
                <mxCell id="EAE-r1h3n8rKNCchYZHm-142" value="FK" style="shape=partialRectangle;connectable=0;fillColor=none;top=0;left=0;bottom=0;right=0;editable=1;overflow=hidden;" parent="EAE-r1h3n8rKNCchYZHm-141" vertex="1">
                    <mxGeometry width="30" height="30" as="geometry"/>
                </mxCell>
                <mxCell id="EAE-r1h3n8rKNCchYZHm-143" value="renter_id INT" style="shape=partialRectangle;connectable=0;fillColor=none;top=0;left=0;bottom=0;right=0;align=left;spacingLeft=6;overflow=hidden;" parent="EAE-r1h3n8rKNCchYZHm-141" vertex="1">
                    <mxGeometry x="30" width="170" height="30" as="geometry"/>
                </mxCell>
                <mxCell id="EAE-r1h3n8rKNCchYZHm-144" value="" style="shape=partialRectangle;collapsible=0;dropTarget=0;pointerEvents=0;fillColor=none;top=0;left=0;bottom=0;right=0;points=[[0,0.5],[1,0.5]];portConstraint=eastwest;" parent="EAE-r1h3n8rKNCchYZHm-137" vertex="1">
                    <mxGeometry y="90" width="200" height="30" as="geometry"/>
                </mxCell>
                <mxCell id="EAE-r1h3n8rKNCchYZHm-145" value="FK" style="shape=partialRectangle;connectable=0;fillColor=none;top=0;left=0;bottom=0;right=0;editable=1;overflow=hidden;" parent="EAE-r1h3n8rKNCchYZHm-144" vertex="1">
                    <mxGeometry width="30" height="30" as="geometry"/>
                </mxCell>
                <mxCell id="EAE-r1h3n8rKNCchYZHm-146" value="home_id INT" style="shape=partialRectangle;connectable=0;fillColor=none;top=0;left=0;bottom=0;right=0;align=left;spacingLeft=6;overflow=hidden;" parent="EAE-r1h3n8rKNCchYZHm-144" vertex="1">
                    <mxGeometry x="30" width="170" height="30" as="geometry"/>
                </mxCell>
                <mxCell id="EAE-r1h3n8rKNCchYZHm-147" value="" style="shape=partialRectangle;collapsible=0;dropTarget=0;pointerEvents=0;fillColor=none;top=0;left=0;bottom=0;right=0;points=[[0,0.5],[1,0.5]];portConstraint=eastwest;" parent="EAE-r1h3n8rKNCchYZHm-137" vertex="1">
                    <mxGeometry y="120" width="200" height="30" as="geometry"/>
                </mxCell>
                <mxCell id="EAE-r1h3n8rKNCchYZHm-148" value="" style="shape=partialRectangle;connectable=0;fillColor=none;top=0;left=0;bottom=0;right=0;editable=1;overflow=hidden;" parent="EAE-r1h3n8rKNCchYZHm-147" vertex="1">
                    <mxGeometry width="30" height="30" as="geometry"/>
                </mxCell>
                <mxCell id="EAE-r1h3n8rKNCchYZHm-149" value="total_token_amount INT" style="shape=partialRectangle;connectable=0;fillColor=none;top=0;left=0;bottom=0;right=0;align=left;spacingLeft=6;overflow=hidden;" parent="EAE-r1h3n8rKNCchYZHm-147" vertex="1">
                    <mxGeometry x="30" width="170" height="30" as="geometry"/>
                </mxCell>
                <mxCell id="EAE-r1h3n8rKNCchYZHm-379" value="" style="shape=partialRectangle;collapsible=0;dropTarget=0;pointerEvents=0;fillColor=none;top=0;left=0;bottom=0;right=0;points=[[0,0.5],[1,0.5]];portConstraint=eastwest;" parent="EAE-r1h3n8rKNCchYZHm-137" vertex="1">
                    <mxGeometry y="150" width="200" height="30" as="geometry"/>
                </mxCell>
                <mxCell id="EAE-r1h3n8rKNCchYZHm-380" value="" style="shape=partialRectangle;connectable=0;fillColor=none;top=0;left=0;bottom=0;right=0;editable=1;overflow=hidden;" parent="EAE-r1h3n8rKNCchYZHm-379" vertex="1">
                    <mxGeometry width="30" height="30" as="geometry"/>
                </mxCell>
                <mxCell id="EAE-r1h3n8rKNCchYZHm-381" value="start_date DATETIME" style="shape=partialRectangle;connectable=0;fillColor=none;top=0;left=0;bottom=0;right=0;align=left;spacingLeft=6;overflow=hidden;" parent="EAE-r1h3n8rKNCchYZHm-379" vertex="1">
                    <mxGeometry x="30" width="170" height="30" as="geometry"/>
                </mxCell>
                <mxCell id="EAE-r1h3n8rKNCchYZHm-382" value="" style="shape=partialRectangle;collapsible=0;dropTarget=0;pointerEvents=0;fillColor=none;top=0;left=0;bottom=0;right=0;points=[[0,0.5],[1,0.5]];portConstraint=eastwest;" parent="EAE-r1h3n8rKNCchYZHm-137" vertex="1">
                    <mxGeometry y="180" width="200" height="30" as="geometry"/>
                </mxCell>
                <mxCell id="EAE-r1h3n8rKNCchYZHm-383" value="" style="shape=partialRectangle;connectable=0;fillColor=none;top=0;left=0;bottom=0;right=0;editable=1;overflow=hidden;" parent="EAE-r1h3n8rKNCchYZHm-382" vertex="1">
                    <mxGeometry width="30" height="30" as="geometry"/>
                </mxCell>
                <mxCell id="EAE-r1h3n8rKNCchYZHm-384" value="end_date DATETIME" style="shape=partialRectangle;connectable=0;fillColor=none;top=0;left=0;bottom=0;right=0;align=left;spacingLeft=6;overflow=hidden;" parent="EAE-r1h3n8rKNCchYZHm-382" vertex="1">
                    <mxGeometry x="30" width="170" height="30" as="geometry"/>
                </mxCell>
                <mxCell id="EAE-r1h3n8rKNCchYZHm-385" value="" style="shape=partialRectangle;collapsible=0;dropTarget=0;pointerEvents=0;fillColor=none;top=0;left=0;bottom=0;right=0;points=[[0,0.5],[1,0.5]];portConstraint=eastwest;" parent="EAE-r1h3n8rKNCchYZHm-137" vertex="1">
                    <mxGeometry y="210" width="200" height="30" as="geometry"/>
                </mxCell>
                <mxCell id="EAE-r1h3n8rKNCchYZHm-386" value="" style="shape=partialRectangle;connectable=0;fillColor=none;top=0;left=0;bottom=0;right=0;editable=1;overflow=hidden;" parent="EAE-r1h3n8rKNCchYZHm-385" vertex="1">
                    <mxGeometry width="30" height="30" as="geometry"/>
                </mxCell>
                <mxCell id="EAE-r1h3n8rKNCchYZHm-387" value="created_date DATETIME" style="shape=partialRectangle;connectable=0;fillColor=none;top=0;left=0;bottom=0;right=0;align=left;spacingLeft=6;overflow=hidden;" parent="EAE-r1h3n8rKNCchYZHm-385" vertex="1">
                    <mxGeometry x="30" width="170" height="30" as="geometry"/>
                </mxCell>
                <mxCell id="EAE-r1h3n8rKNCchYZHm-150" value="HOME_HISTORY_LOG" style="shape=table;startSize=30;container=1;collapsible=1;childLayout=tableLayout;fixedRows=1;rowLines=0;fontStyle=1;align=center;resizeLast=1;" parent="1" vertex="1">
                    <mxGeometry x="2490" y="425" width="210" height="430" as="geometry"/>
                </mxCell>
                <mxCell id="EAE-r1h3n8rKNCchYZHm-151" value="" style="shape=partialRectangle;collapsible=0;dropTarget=0;pointerEvents=0;fillColor=none;top=0;left=0;bottom=1;right=0;points=[[0,0.5],[1,0.5]];portConstraint=eastwest;" parent="EAE-r1h3n8rKNCchYZHm-150" vertex="1">
                    <mxGeometry y="30" width="210" height="30" as="geometry"/>
                </mxCell>
                <mxCell id="EAE-r1h3n8rKNCchYZHm-152" value="PK" style="shape=partialRectangle;connectable=0;fillColor=none;top=0;left=0;bottom=0;right=0;fontStyle=1;overflow=hidden;" parent="EAE-r1h3n8rKNCchYZHm-151" vertex="1">
                    <mxGeometry width="30" height="30" as="geometry"/>
                </mxCell>
                <mxCell id="EAE-r1h3n8rKNCchYZHm-153" value="UniqueID" style="shape=partialRectangle;connectable=0;fillColor=none;top=0;left=0;bottom=0;right=0;align=left;spacingLeft=6;fontStyle=5;overflow=hidden;" parent="EAE-r1h3n8rKNCchYZHm-151" vertex="1">
                    <mxGeometry x="30" width="180" height="30" as="geometry"/>
                </mxCell>
                <mxCell id="EAE-r1h3n8rKNCchYZHm-154" value="" style="shape=partialRectangle;collapsible=0;dropTarget=0;pointerEvents=0;fillColor=none;top=0;left=0;bottom=0;right=0;points=[[0,0.5],[1,0.5]];portConstraint=eastwest;" parent="EAE-r1h3n8rKNCchYZHm-150" vertex="1">
                    <mxGeometry y="60" width="210" height="30" as="geometry"/>
                </mxCell>
                <mxCell id="EAE-r1h3n8rKNCchYZHm-155" value="FK" style="shape=partialRectangle;connectable=0;fillColor=none;top=0;left=0;bottom=0;right=0;editable=1;overflow=hidden;" parent="EAE-r1h3n8rKNCchYZHm-154" vertex="1">
                    <mxGeometry width="30" height="30" as="geometry"/>
                </mxCell>
                <mxCell id="EAE-r1h3n8rKNCchYZHm-156" value="home_id INT" style="shape=partialRectangle;connectable=0;fillColor=none;top=0;left=0;bottom=0;right=0;align=left;spacingLeft=6;overflow=hidden;" parent="EAE-r1h3n8rKNCchYZHm-154" vertex="1">
                    <mxGeometry x="30" width="180" height="30" as="geometry"/>
                </mxCell>
                <mxCell id="EAE-r1h3n8rKNCchYZHm-163" value="&lt;b&gt;&lt;font style=&quot;font-size: 25px&quot;&gt;All tables have a UUID&lt;/font&gt;&lt;/b&gt;" style="text;html=1;align=center;verticalAlign=middle;resizable=0;points=[];autosize=1;strokeColor=none;" parent="1" vertex="1">
                    <mxGeometry x="1440" y="830" width="280" height="20" as="geometry"/>
                </mxCell>
                <mxCell id="EAE-r1h3n8rKNCchYZHm-174" value="country STRING" style="shape=partialRectangle;connectable=0;fillColor=none;top=0;left=0;bottom=0;right=0;align=left;spacingLeft=6;overflow=hidden;" parent="1" vertex="1">
                    <mxGeometry x="2230" y="190" width="150" height="30" as="geometry"/>
                </mxCell>
                <mxCell id="EAE-r1h3n8rKNCchYZHm-175" value="price_per_night INT" style="shape=partialRectangle;connectable=0;fillColor=none;top=0;left=0;bottom=0;right=0;align=left;spacingLeft=6;overflow=hidden;" parent="1" vertex="1">
                    <mxGeometry x="2230" y="220" width="150" height="30" as="geometry"/>
                </mxCell>
                <mxCell id="EAE-r1h3n8rKNCchYZHm-176" value="start_date DATETIME" style="shape=partialRectangle;connectable=0;fillColor=none;top=0;left=0;bottom=0;right=0;align=left;spacingLeft=6;overflow=hidden;" parent="1" vertex="1">
                    <mxGeometry x="2231" y="250" width="150" height="30" as="geometry"/>
                </mxCell>
                <mxCell id="EAE-r1h3n8rKNCchYZHm-177" value="end_date DATETIME" style="shape=partialRectangle;connectable=0;fillColor=none;top=0;left=0;bottom=0;right=0;align=left;spacingLeft=6;overflow=hidden;" parent="1" vertex="1">
                    <mxGeometry x="2231" y="280" width="150" height="30" as="geometry"/>
                </mxCell>
                <mxCell id="EAE-r1h3n8rKNCchYZHm-179" value="updated_date DATETIME" style="shape=partialRectangle;connectable=0;fillColor=none;top=0;left=0;bottom=0;right=0;align=left;spacingLeft=6;overflow=hidden;" parent="1" vertex="1">
                    <mxGeometry x="2230" y="310" width="150" height="30" as="geometry"/>
                </mxCell>
                <mxCell id="EAE-r1h3n8rKNCchYZHm-180" value="created_date DATETIME" style="shape=partialRectangle;connectable=0;fillColor=none;top=0;left=0;bottom=0;right=0;align=left;spacingLeft=6;overflow=hidden;" parent="1" vertex="1">
                    <mxGeometry x="2230" y="340" width="150" height="30" as="geometry"/>
                </mxCell>
                <mxCell id="EAE-r1h3n8rKNCchYZHm-182" value="has_kitchen BOOLEAN" style="shape=partialRectangle;connectable=0;fillColor=none;top=0;left=0;bottom=0;right=0;align=left;spacingLeft=6;overflow=hidden;" parent="1" vertex="1">
                    <mxGeometry x="2231" y="370" width="150" height="30" as="geometry"/>
                </mxCell>
                <mxCell id="EAE-r1h3n8rKNCchYZHm-183" value="has_wifi BOOLEAN" style="shape=partialRectangle;connectable=0;fillColor=none;top=0;left=0;bottom=0;right=0;align=left;spacingLeft=6;overflow=hidden;" parent="1" vertex="1">
                    <mxGeometry x="2230" y="400" width="150" height="30" as="geometry"/>
                </mxCell>
                <mxCell id="EAE-r1h3n8rKNCchYZHm-184" value="has_bathroom BOOLEAN" style="shape=partialRectangle;connectable=0;fillColor=none;top=0;left=0;bottom=0;right=0;align=left;spacingLeft=6;overflow=hidden;" parent="1" vertex="1">
                    <mxGeometry x="2231" y="425" width="150" height="30" as="geometry"/>
                </mxCell>
                <mxCell id="EAE-r1h3n8rKNCchYZHm-185" value="has_balcony BOOLEAN" style="shape=partialRectangle;connectable=0;fillColor=none;top=0;left=0;bottom=0;right=0;align=left;spacingLeft=6;overflow=hidden;" parent="1" vertex="1">
                    <mxGeometry x="2230" y="450" width="150" height="30" as="geometry"/>
                </mxCell>
                <mxCell id="EAE-r1h3n8rKNCchYZHm-186" value="has_parking BOOLEAN" style="shape=partialRectangle;connectable=0;fillColor=none;top=0;left=0;bottom=0;right=0;align=left;spacingLeft=6;overflow=hidden;" parent="1" vertex="1">
                    <mxGeometry x="2231" y="480" width="150" height="30" as="geometry"/>
                </mxCell>
                <mxCell id="EAE-r1h3n8rKNCchYZHm-189" value="renter_review" style="shape=table;startSize=30;container=1;collapsible=1;childLayout=tableLayout;fixedRows=1;rowLines=0;fontStyle=1;align=center;resizeLast=1;" parent="1" vertex="1">
                    <mxGeometry x="1920" y="720" width="200" height="150" as="geometry"/>
                </mxCell>
                <mxCell id="EAE-r1h3n8rKNCchYZHm-190" value="" style="shape=partialRectangle;collapsible=0;dropTarget=0;pointerEvents=0;fillColor=none;top=0;left=0;bottom=1;right=0;points=[[0,0.5],[1,0.5]];portConstraint=eastwest;" parent="EAE-r1h3n8rKNCchYZHm-189" vertex="1">
                    <mxGeometry y="30" width="200" height="30" as="geometry"/>
                </mxCell>
                <mxCell id="EAE-r1h3n8rKNCchYZHm-191" value="PK" style="shape=partialRectangle;connectable=0;fillColor=none;top=0;left=0;bottom=0;right=0;fontStyle=1;overflow=hidden;" parent="EAE-r1h3n8rKNCchYZHm-190" vertex="1">
                    <mxGeometry width="30" height="30" as="geometry"/>
                </mxCell>
                <mxCell id="EAE-r1h3n8rKNCchYZHm-192" value="UniqueID" style="shape=partialRectangle;connectable=0;fillColor=none;top=0;left=0;bottom=0;right=0;align=left;spacingLeft=6;fontStyle=5;overflow=hidden;" parent="EAE-r1h3n8rKNCchYZHm-190" vertex="1">
                    <mxGeometry x="30" width="170" height="30" as="geometry"/>
                </mxCell>
                <mxCell id="EAE-r1h3n8rKNCchYZHm-226" value="" style="shape=partialRectangle;collapsible=0;dropTarget=0;pointerEvents=0;fillColor=none;top=0;left=0;bottom=0;right=0;points=[[0,0.5],[1,0.5]];portConstraint=eastwest;" parent="EAE-r1h3n8rKNCchYZHm-189" vertex="1">
                    <mxGeometry y="60" width="200" height="30" as="geometry"/>
                </mxCell>
                <mxCell id="EAE-r1h3n8rKNCchYZHm-227" value="FK" style="shape=partialRectangle;connectable=0;fillColor=none;top=0;left=0;bottom=0;right=0;editable=1;overflow=hidden;" parent="EAE-r1h3n8rKNCchYZHm-226" vertex="1">
                    <mxGeometry width="30" height="30" as="geometry"/>
                </mxCell>
                <mxCell id="EAE-r1h3n8rKNCchYZHm-228" value="renter_id INT" style="shape=partialRectangle;connectable=0;fillColor=none;top=0;left=0;bottom=0;right=0;align=left;spacingLeft=6;overflow=hidden;" parent="EAE-r1h3n8rKNCchYZHm-226" vertex="1">
                    <mxGeometry x="30" width="170" height="30" as="geometry"/>
                </mxCell>
                <mxCell id="EAE-r1h3n8rKNCchYZHm-257" value="" style="shape=partialRectangle;collapsible=0;dropTarget=0;pointerEvents=0;fillColor=none;top=0;left=0;bottom=0;right=0;points=[[0,0.5],[1,0.5]];portConstraint=eastwest;" parent="EAE-r1h3n8rKNCchYZHm-189" vertex="1">
                    <mxGeometry y="90" width="200" height="30" as="geometry"/>
                </mxCell>
                <mxCell id="EAE-r1h3n8rKNCchYZHm-258" value="FK" style="shape=partialRectangle;connectable=0;fillColor=none;top=0;left=0;bottom=0;right=0;editable=1;overflow=hidden;" parent="EAE-r1h3n8rKNCchYZHm-257" vertex="1">
                    <mxGeometry width="30" height="30" as="geometry"/>
                </mxCell>
                <mxCell id="EAE-r1h3n8rKNCchYZHm-259" value="review_id INT" style="shape=partialRectangle;connectable=0;fillColor=none;top=0;left=0;bottom=0;right=0;align=left;spacingLeft=6;overflow=hidden;" parent="EAE-r1h3n8rKNCchYZHm-257" vertex="1">
                    <mxGeometry x="30" width="170" height="30" as="geometry"/>
                </mxCell>
                <mxCell id="EAE-r1h3n8rKNCchYZHm-263" value="review" style="shape=table;startSize=30;container=1;collapsible=1;childLayout=tableLayout;fixedRows=1;rowLines=0;fontStyle=1;align=center;resizeLast=1;" parent="1" vertex="1">
                    <mxGeometry x="2200" y="560" width="200" height="320" as="geometry"/>
                </mxCell>
                <mxCell id="EAE-r1h3n8rKNCchYZHm-264" value="" style="shape=partialRectangle;collapsible=0;dropTarget=0;pointerEvents=0;fillColor=none;top=0;left=0;bottom=1;right=0;points=[[0,0.5],[1,0.5]];portConstraint=eastwest;" parent="EAE-r1h3n8rKNCchYZHm-263" vertex="1">
                    <mxGeometry y="30" width="200" height="30" as="geometry"/>
                </mxCell>
                <mxCell id="EAE-r1h3n8rKNCchYZHm-265" value="PK" style="shape=partialRectangle;connectable=0;fillColor=none;top=0;left=0;bottom=0;right=0;fontStyle=1;overflow=hidden;" parent="EAE-r1h3n8rKNCchYZHm-264" vertex="1">
                    <mxGeometry width="30" height="30" as="geometry"/>
                </mxCell>
                <mxCell id="EAE-r1h3n8rKNCchYZHm-266" value="UniqueID" style="shape=partialRectangle;connectable=0;fillColor=none;top=0;left=0;bottom=0;right=0;align=left;spacingLeft=6;fontStyle=5;overflow=hidden;" parent="EAE-r1h3n8rKNCchYZHm-264" vertex="1">
                    <mxGeometry x="30" width="170" height="30" as="geometry"/>
                </mxCell>
                <mxCell id="EAE-r1h3n8rKNCchYZHm-339" value="" style="shape=partialRectangle;collapsible=0;dropTarget=0;pointerEvents=0;fillColor=none;top=0;left=0;bottom=0;right=0;points=[[0,0.5],[1,0.5]];portConstraint=eastwest;" parent="1" vertex="1">
                    <mxGeometry x="2200" y="620" width="200" height="30" as="geometry"/>
                </mxCell>
                <mxCell id="EAE-r1h3n8rKNCchYZHm-340" value="" style="shape=partialRectangle;connectable=0;fillColor=none;top=0;left=0;bottom=0;right=0;editable=1;overflow=hidden;" parent="EAE-r1h3n8rKNCchYZHm-339" vertex="1">
                    <mxGeometry width="30" height="30" as="geometry"/>
                </mxCell>
                <mxCell id="EAE-r1h3n8rKNCchYZHm-341" value="rating INT (5)" style="shape=partialRectangle;connectable=0;fillColor=none;top=0;left=0;bottom=0;right=0;align=left;spacingLeft=6;overflow=hidden;" parent="EAE-r1h3n8rKNCchYZHm-339" vertex="1">
                    <mxGeometry x="30" width="170" height="30" as="geometry"/>
                </mxCell>
                <mxCell id="EAE-r1h3n8rKNCchYZHm-342" value="" style="shape=partialRectangle;collapsible=0;dropTarget=0;pointerEvents=0;fillColor=none;top=0;left=0;bottom=0;right=0;points=[[0,0.5],[1,0.5]];portConstraint=eastwest;" parent="1" vertex="1">
                    <mxGeometry x="2200" y="650" width="200" height="30" as="geometry"/>
                </mxCell>
                <mxCell id="EAE-r1h3n8rKNCchYZHm-343" value="" style="shape=partialRectangle;connectable=0;fillColor=none;top=0;left=0;bottom=0;right=0;editable=1;overflow=hidden;" parent="EAE-r1h3n8rKNCchYZHm-342" vertex="1">
                    <mxGeometry width="30" height="30" as="geometry"/>
                </mxCell>
                <mxCell id="EAE-r1h3n8rKNCchYZHm-344" value="comment STRING" style="shape=partialRectangle;connectable=0;fillColor=none;top=0;left=0;bottom=0;right=0;align=left;spacingLeft=6;overflow=hidden;" parent="EAE-r1h3n8rKNCchYZHm-342" vertex="1">
                    <mxGeometry x="30" width="170" height="30" as="geometry"/>
                </mxCell>
                <mxCell id="EAE-r1h3n8rKNCchYZHm-345" value="" style="shape=partialRectangle;collapsible=0;dropTarget=0;pointerEvents=0;fillColor=none;top=0;left=0;bottom=0;right=0;points=[[0,0.5],[1,0.5]];portConstraint=eastwest;" parent="1" vertex="1">
                    <mxGeometry x="2200" y="680" width="200" height="30" as="geometry"/>
                </mxCell>
                <mxCell id="EAE-r1h3n8rKNCchYZHm-346" value="" style="shape=partialRectangle;connectable=0;fillColor=none;top=0;left=0;bottom=0;right=0;editable=1;overflow=hidden;" parent="EAE-r1h3n8rKNCchYZHm-345" vertex="1">
                    <mxGeometry width="30" height="30" as="geometry"/>
                </mxCell>
                <mxCell id="EAE-r1h3n8rKNCchYZHm-347" value="created_date DATETIME" style="shape=partialRectangle;connectable=0;fillColor=none;top=0;left=0;bottom=0;right=0;align=left;spacingLeft=6;overflow=hidden;" parent="EAE-r1h3n8rKNCchYZHm-345" vertex="1">
                    <mxGeometry x="30" width="170" height="30" as="geometry"/>
                </mxCell>
                <mxCell id="EAE-r1h3n8rKNCchYZHm-354" value="" style="shape=partialRectangle;collapsible=0;dropTarget=0;pointerEvents=0;fillColor=none;top=0;left=0;bottom=0;right=0;points=[[0,0.5],[1,0.5]];portConstraint=eastwest;" parent="1" vertex="1">
                    <mxGeometry x="2200" y="710" width="200" height="30" as="geometry"/>
                </mxCell>
                <mxCell id="EAE-r1h3n8rKNCchYZHm-355" value="" style="shape=partialRectangle;connectable=0;fillColor=none;top=0;left=0;bottom=0;right=0;editable=1;overflow=hidden;" parent="EAE-r1h3n8rKNCchYZHm-354" vertex="1">
                    <mxGeometry width="30" height="30" as="geometry"/>
                </mxCell>
                <mxCell id="EAE-r1h3n8rKNCchYZHm-356" value="is_deleted BOOLEAN" style="shape=partialRectangle;connectable=0;fillColor=none;top=0;left=0;bottom=0;right=0;align=left;spacingLeft=6;overflow=hidden;" parent="EAE-r1h3n8rKNCchYZHm-354" vertex="1">
                    <mxGeometry x="30" width="170" height="30" as="geometry"/>
                </mxCell>
                <mxCell id="EAE-r1h3n8rKNCchYZHm-357" value="" style="shape=partialRectangle;collapsible=0;dropTarget=0;pointerEvents=0;fillColor=none;top=0;left=0;bottom=0;right=0;points=[[0,0.5],[1,0.5]];portConstraint=eastwest;" parent="1" vertex="1">
                    <mxGeometry x="2200" y="736" width="200" height="30" as="geometry"/>
                </mxCell>
                <mxCell id="EAE-r1h3n8rKNCchYZHm-358" value="FK" style="shape=partialRectangle;connectable=0;fillColor=none;top=0;left=0;bottom=0;right=0;editable=1;overflow=hidden;" parent="EAE-r1h3n8rKNCchYZHm-357" vertex="1">
                    <mxGeometry width="30" height="30" as="geometry"/>
                </mxCell>
                <mxCell id="EAE-r1h3n8rKNCchYZHm-359" value="booking_id INT" style="shape=partialRectangle;connectable=0;fillColor=none;top=0;left=0;bottom=0;right=0;align=left;spacingLeft=6;overflow=hidden;" parent="EAE-r1h3n8rKNCchYZHm-357" vertex="1">
                    <mxGeometry x="30" width="170" height="30" as="geometry"/>
                </mxCell>
                <mxCell id="EAE-r1h3n8rKNCchYZHm-360" value="" style="shape=partialRectangle;collapsible=0;dropTarget=0;pointerEvents=0;fillColor=none;top=0;left=0;bottom=0;right=0;points=[[0,0.5],[1,0.5]];portConstraint=eastwest;" parent="1" vertex="1">
                    <mxGeometry x="2200" y="760" width="200" height="30" as="geometry"/>
                </mxCell>
                <mxCell id="EAE-r1h3n8rKNCchYZHm-361" value="FK" style="shape=partialRectangle;connectable=0;fillColor=none;top=0;left=0;bottom=0;right=0;editable=1;overflow=hidden;" parent="EAE-r1h3n8rKNCchYZHm-360" vertex="1">
                    <mxGeometry width="30" height="30" as="geometry"/>
                </mxCell>
                <mxCell id="EAE-r1h3n8rKNCchYZHm-362" value="creator_id INT" style="shape=partialRectangle;connectable=0;fillColor=none;top=0;left=0;bottom=0;right=0;align=left;spacingLeft=6;overflow=hidden;" parent="EAE-r1h3n8rKNCchYZHm-360" vertex="1">
                    <mxGeometry x="30" width="170" height="30" as="geometry"/>
                </mxCell>
                <mxCell id="EAE-r1h3n8rKNCchYZHm-363" value="RENTER_REVIEW" style="ellipse;whiteSpace=wrap;html=1;aspect=fixed;" parent="1" vertex="1">
                    <mxGeometry x="750" y="580" width="100" height="100" as="geometry"/>
                </mxCell>
                <mxCell id="EAE-r1h3n8rKNCchYZHm-364" value="HOST_REVIEW" style="ellipse;whiteSpace=wrap;html=1;aspect=fixed;" parent="1" vertex="1">
                    <mxGeometry x="450" y="240" width="100" height="100" as="geometry"/>
                </mxCell>
                <mxCell id="EAE-r1h3n8rKNCchYZHm-365" value="" style="endArrow=none;html=1;rounded=0;exitX=1;exitY=0.5;exitDx=0;exitDy=0;startArrow=none;entryX=0;entryY=0.5;entryDx=0;entryDy=0;" parent="1" source="EAE-r1h3n8rKNCchYZHm-368" target="dL861pbHHW98_k1-BwGy-13" edge="1">
                    <mxGeometry relative="1" as="geometry">
                        <mxPoint x="250" y="830" as="sourcePoint"/>
                        <mxPoint x="670" y="480" as="targetPoint"/>
                    </mxGeometry>
                </mxCell>
                <mxCell id="EAE-r1h3n8rKNCchYZHm-368" value="WRITES" style="shape=rhombus;perimeter=rhombusPerimeter;whiteSpace=wrap;html=1;align=center;" parent="1" vertex="1">
                    <mxGeometry x="370" y="450" width="120" height="60" as="geometry"/>
                </mxCell>
                <mxCell id="EAE-r1h3n8rKNCchYZHm-369" value="" style="endArrow=none;html=1;rounded=0;exitX=1;exitY=0.5;exitDx=0;exitDy=0;" parent="1" source="dL861pbHHW98_k1-BwGy-1" target="EAE-r1h3n8rKNCchYZHm-368" edge="1">
                    <mxGeometry relative="1" as="geometry">
                        <mxPoint x="189.99999999999636" y="475" as="sourcePoint"/>
                        <mxPoint x="670" y="480" as="targetPoint"/>
                    </mxGeometry>
                </mxCell>
                <mxCell id="EAE-r1h3n8rKNCchYZHm-372" value="" style="endArrow=none;html=1;rounded=0;exitX=1;exitY=1;exitDx=0;exitDy=0;entryX=0;entryY=0;entryDx=0;entryDy=0;" parent="1" source="dL861pbHHW98_k1-BwGy-2" target="EAE-r1h3n8rKNCchYZHm-364" edge="1">
                    <mxGeometry relative="1" as="geometry">
                        <mxPoint x="450" y="114.29000000000002" as="sourcePoint"/>
                        <mxPoint x="610" y="114.29000000000002" as="targetPoint"/>
                    </mxGeometry>
                </mxCell>
                <mxCell id="EAE-r1h3n8rKNCchYZHm-373" value="" style="endArrow=none;html=1;rounded=0;exitX=1;exitY=1;exitDx=0;exitDy=0;entryX=0;entryY=0;entryDx=0;entryDy=0;" parent="1" source="EAE-r1h3n8rKNCchYZHm-364" target="dL861pbHHW98_k1-BwGy-13" edge="1">
                    <mxGeometry relative="1" as="geometry">
                        <mxPoint x="640" y="220" as="sourcePoint"/>
                        <mxPoint x="800" y="220" as="targetPoint"/>
                    </mxGeometry>
                </mxCell>
                <mxCell id="EAE-r1h3n8rKNCchYZHm-374" value="" style="endArrow=none;html=1;rounded=0;entryX=0;entryY=0;entryDx=0;entryDy=0;exitX=1;exitY=1;exitDx=0;exitDy=0;" parent="1" source="dL861pbHHW98_k1-BwGy-13" target="EAE-r1h3n8rKNCchYZHm-363" edge="1">
                    <mxGeometry relative="1" as="geometry">
                        <mxPoint x="690" y="470" as="sourcePoint"/>
                        <mxPoint x="850" y="470" as="targetPoint"/>
                    </mxGeometry>
                </mxCell>
                <mxCell id="EAE-r1h3n8rKNCchYZHm-375" value="" style="endArrow=none;html=1;rounded=0;" parent="1" source="EAE-r1h3n8rKNCchYZHm-363" target="dL861pbHHW98_k1-BwGy-11" edge="1">
                    <mxGeometry relative="1" as="geometry">
                        <mxPoint x="997" y="705" as="sourcePoint"/>
                        <mxPoint x="1157" y="705" as="targetPoint"/>
                    </mxGeometry>
                </mxCell>
                <mxCell id="EAE-r1h3n8rKNCchYZHm-391" value="address STRING" style="shape=partialRectangle;connectable=0;fillColor=none;top=0;left=0;bottom=0;right=0;align=left;spacingLeft=6;overflow=hidden;" parent="1" vertex="1">
                    <mxGeometry x="2520" y="510" width="170" height="30" as="geometry"/>
                </mxCell>
                <mxCell id="EAE-r1h3n8rKNCchYZHm-392" value="city STRING" style="shape=partialRectangle;connectable=0;fillColor=none;top=0;left=0;bottom=0;right=0;align=left;spacingLeft=6;overflow=hidden;" parent="1" vertex="1">
                    <mxGeometry x="2520" y="540" width="170" height="30" as="geometry"/>
                </mxCell>
                <mxCell id="EAE-r1h3n8rKNCchYZHm-393" value="country STRING" style="shape=partialRectangle;connectable=0;fillColor=none;top=0;left=0;bottom=0;right=0;align=left;spacingLeft=6;overflow=hidden;" parent="1" vertex="1">
                    <mxGeometry x="2520" y="570" width="150" height="30" as="geometry"/>
                </mxCell>
                <mxCell id="EAE-r1h3n8rKNCchYZHm-394" value="price_per_night INT" style="shape=partialRectangle;connectable=0;fillColor=none;top=0;left=0;bottom=0;right=0;align=left;spacingLeft=6;overflow=hidden;" parent="1" vertex="1">
                    <mxGeometry x="2520" y="600" width="150" height="30" as="geometry"/>
                </mxCell>
                <mxCell id="EAE-r1h3n8rKNCchYZHm-395" value="start_date DATETIME" style="shape=partialRectangle;connectable=0;fillColor=none;top=0;left=0;bottom=0;right=0;align=left;spacingLeft=6;overflow=hidden;" parent="1" vertex="1">
                    <mxGeometry x="2521" y="630" width="150" height="30" as="geometry"/>
                </mxCell>
                <mxCell id="EAE-r1h3n8rKNCchYZHm-396" value="end_date DATETIME" style="shape=partialRectangle;connectable=0;fillColor=none;top=0;left=0;bottom=0;right=0;align=left;spacingLeft=6;overflow=hidden;" parent="1" vertex="1">
                    <mxGeometry x="2521" y="660" width="150" height="30" as="geometry"/>
                </mxCell>
                <mxCell id="EAE-r1h3n8rKNCchYZHm-397" value="created_date DATETIME" style="shape=partialRectangle;connectable=0;fillColor=none;top=0;left=0;bottom=0;right=0;align=left;spacingLeft=6;overflow=hidden;" parent="1" vertex="1">
                    <mxGeometry x="2520" y="690" width="150" height="30" as="geometry"/>
                </mxCell>
                <mxCell id="EAE-r1h3n8rKNCchYZHm-399" value="has_kitchen BOOLEAN" style="shape=partialRectangle;connectable=0;fillColor=none;top=0;left=0;bottom=0;right=0;align=left;spacingLeft=6;overflow=hidden;" parent="1" vertex="1">
                    <mxGeometry x="2521" y="712" width="150" height="30" as="geometry"/>
                </mxCell>
                <mxCell id="EAE-r1h3n8rKNCchYZHm-400" value="has_wifi BOOLEAN" style="shape=partialRectangle;connectable=0;fillColor=none;top=0;left=0;bottom=0;right=0;align=left;spacingLeft=6;overflow=hidden;" parent="1" vertex="1">
                    <mxGeometry x="2520" y="742" width="150" height="30" as="geometry"/>
                </mxCell>
                <mxCell id="EAE-r1h3n8rKNCchYZHm-401" value="has_bathroom BOOLEAN" style="shape=partialRectangle;connectable=0;fillColor=none;top=0;left=0;bottom=0;right=0;align=left;spacingLeft=6;overflow=hidden;" parent="1" vertex="1">
                    <mxGeometry x="2521" y="767" width="159" height="30" as="geometry"/>
                </mxCell>
                <mxCell id="EAE-r1h3n8rKNCchYZHm-402" value="has_balcony BOOLEAN" style="shape=partialRectangle;connectable=0;fillColor=none;top=0;left=0;bottom=0;right=0;align=left;spacingLeft=6;overflow=hidden;" parent="1" vertex="1">
                    <mxGeometry x="2520" y="792" width="150" height="30" as="geometry"/>
                </mxCell>
                <mxCell id="EAE-r1h3n8rKNCchYZHm-403" value="has_parking BOOLEAN" style="shape=partialRectangle;connectable=0;fillColor=none;top=0;left=0;bottom=0;right=0;align=left;spacingLeft=6;overflow=hidden;" parent="1" vertex="1">
                    <mxGeometry x="2521" y="822" width="150" height="30" as="geometry"/>
                </mxCell>
                <mxCell id="EAE-r1h3n8rKNCchYZHm-404" value="N" style="text;html=1;align=center;verticalAlign=middle;resizable=0;points=[];autosize=1;strokeColor=none;" parent="1" vertex="1">
                    <mxGeometry x="840" y="660" width="20" height="20" as="geometry"/>
                </mxCell>
                <mxCell id="EAE-r1h3n8rKNCchYZHm-405" value="1" style="text;html=1;align=center;verticalAlign=middle;resizable=0;points=[];autosize=1;strokeColor=none;" parent="1" vertex="1">
                    <mxGeometry x="770" y="560" width="20" height="20" as="geometry"/>
                </mxCell>
                <mxCell id="EAE-r1h3n8rKNCchYZHm-406" value="1" style="text;html=1;align=center;verticalAlign=middle;resizable=0;points=[];autosize=1;strokeColor=none;" parent="1" vertex="1">
                    <mxGeometry x="730" y="510" width="20" height="20" as="geometry"/>
                </mxCell>
                <mxCell id="EAE-r1h3n8rKNCchYZHm-407" value="1" style="text;html=1;align=center;verticalAlign=middle;resizable=0;points=[];autosize=1;strokeColor=none;" parent="1" vertex="1">
                    <mxGeometry x="620" y="390" width="20" height="20" as="geometry"/>
                </mxCell>
                <mxCell id="EAE-r1h3n8rKNCchYZHm-408" value="1" style="text;html=1;align=center;verticalAlign=middle;resizable=0;points=[];autosize=1;strokeColor=none;" parent="1" vertex="1">
                    <mxGeometry x="540" y="310" width="20" height="20" as="geometry"/>
                </mxCell>
                <mxCell id="EAE-r1h3n8rKNCchYZHm-409" value="N" style="text;html=1;align=center;verticalAlign=middle;resizable=0;points=[];autosize=1;strokeColor=none;" parent="1" vertex="1">
                    <mxGeometry x="460" y="220" width="20" height="20" as="geometry"/>
                </mxCell>
                <mxCell id="EAE-r1h3n8rKNCchYZHm-410" value="1" style="text;html=1;align=center;verticalAlign=middle;resizable=0;points=[];autosize=1;strokeColor=none;" parent="1" vertex="1">
                    <mxGeometry x="400" y="160" width="20" height="20" as="geometry"/>
                </mxCell>
                <mxCell id="EAE-r1h3n8rKNCchYZHm-411" value="1" style="text;html=1;align=center;verticalAlign=middle;resizable=0;points=[];autosize=1;strokeColor=none;" parent="1" vertex="1">
                    <mxGeometry x="190" y="430" width="20" height="20" as="geometry"/>
                </mxCell>
                <mxCell id="EAE-r1h3n8rKNCchYZHm-412" value="&lt;div&gt;N&lt;/div&gt;" style="text;html=1;align=center;verticalAlign=middle;resizable=0;points=[];autosize=1;strokeColor=none;" parent="1" vertex="1">
                    <mxGeometry x="570" y="450" width="20" height="20" as="geometry"/>
                </mxCell>
                <mxCell id="EAE-r1h3n8rKNCchYZHm-417" value="1" style="text;html=1;align=center;verticalAlign=middle;resizable=0;points=[];autosize=1;strokeColor=none;" parent="1" vertex="1">
                    <mxGeometry x="970" y="-120" width="20" height="20" as="geometry"/>
                </mxCell>
                <mxCell id="EAE-r1h3n8rKNCchYZHm-418" value="N" style="text;html=1;align=center;verticalAlign=middle;resizable=0;points=[];autosize=1;strokeColor=none;" parent="1" vertex="1">
                    <mxGeometry x="1240" y="-120" width="20" height="20" as="geometry"/>
                </mxCell>
                <mxCell id="EAE-r1h3n8rKNCchYZHm-419" value="" style="endArrow=none;html=1;rounded=0;exitX=1;exitY=0;exitDx=0;exitDy=0;entryX=0;entryY=0.5;entryDx=0;entryDy=0;startArrow=none;" parent="1" source="EAE-r1h3n8rKNCchYZHm-420" target="dL861pbHHW98_k1-BwGy-3" edge="1">
                    <mxGeometry relative="1" as="geometry">
                        <mxPoint x="790" y="220" as="sourcePoint"/>
                        <mxPoint x="950" y="220" as="targetPoint"/>
                    </mxGeometry>
                </mxCell>
                <mxCell id="EAE-r1h3n8rKNCchYZHm-420" value="OWNS" style="shape=rhombus;perimeter=rhombusPerimeter;whiteSpace=wrap;html=1;align=center;" parent="1" vertex="1">
                    <mxGeometry x="550" y="-20" width="120" height="60" as="geometry"/>
                </mxCell>
                <mxCell id="EAE-r1h3n8rKNCchYZHm-421" value="" style="endArrow=none;html=1;rounded=0;exitX=1;exitY=0;exitDx=0;exitDy=0;entryX=0;entryY=0.5;entryDx=0;entryDy=0;" parent="1" source="dL861pbHHW98_k1-BwGy-2" target="EAE-r1h3n8rKNCchYZHm-420" edge="1">
                    <mxGeometry relative="1" as="geometry">
                        <mxPoint x="389.4974746830653" y="70.50252531693445" as="sourcePoint"/>
                        <mxPoint x="854.9999999999895" y="-50.00000000000023" as="targetPoint"/>
                    </mxGeometry>
                </mxCell>
                <mxCell id="EAE-r1h3n8rKNCchYZHm-422" value="1" style="text;html=1;align=center;verticalAlign=middle;resizable=0;points=[];autosize=1;strokeColor=none;" parent="1" vertex="1">
                    <mxGeometry x="360" y="30" width="20" height="20" as="geometry"/>
                </mxCell>
                <mxCell id="EAE-r1h3n8rKNCchYZHm-423" value="N" style="text;html=1;align=center;verticalAlign=middle;resizable=0;points=[];autosize=1;strokeColor=none;" parent="1" vertex="1">
                    <mxGeometry x="830" y="-90" width="20" height="20" as="geometry"/>
                </mxCell>
                <mxCell id="3" value="hashed_password" style="shape=partialRectangle;connectable=0;fillColor=none;top=0;left=0;bottom=0;right=0;align=left;spacingLeft=6;overflow=hidden;" vertex="1" parent="1">
                    <mxGeometry x="1690" y="190" width="150" height="30" as="geometry"/>
                </mxCell>
            </root>
        </mxGraphModel>
    </diagram>
    <diagram id="hSnXj96g85MphneJJmX-" name="Page-2">
        <mxGraphModel dx="998" dy="543" grid="1" gridSize="10" guides="1" tooltips="1" connect="1" arrows="1" fold="1" page="1" pageScale="1" pageWidth="1600" pageHeight="900" math="0" shadow="0">
            <root>
                <mxCell id="MGQhPzTtGVglBcLO3RI9-0"/>
                <mxCell id="MGQhPzTtGVglBcLO3RI9-1" parent="MGQhPzTtGVglBcLO3RI9-0"/>
                <mxCell id="MGQhPzTtGVglBcLO3RI9-2" style="edgeStyle=orthogonalEdgeStyle;rounded=0;orthogonalLoop=1;jettySize=auto;html=1;entryX=0;entryY=0.5;entryDx=0;entryDy=0;" edge="1" parent="MGQhPzTtGVglBcLO3RI9-1" target="MGQhPzTtGVglBcLO3RI9-10">
                    <mxGeometry relative="1" as="geometry">
                        <mxPoint x="580" y="740.0000000000002" as="sourcePoint"/>
                        <Array as="points">
                            <mxPoint x="590" y="740"/>
                            <mxPoint x="590" y="75"/>
                        </Array>
                    </mxGeometry>
                </mxCell>
                <mxCell id="MGQhPzTtGVglBcLO3RI9-3" value="USER" style="ellipse;whiteSpace=wrap;html=1;aspect=fixed;" vertex="1" parent="MGQhPzTtGVglBcLO3RI9-1">
                    <mxGeometry x="40" y="400" width="150" height="150" as="geometry"/>
                </mxCell>
                <mxCell id="MGQhPzTtGVglBcLO3RI9-4" value="" style="edgeStyle=orthogonalEdgeStyle;rounded=0;orthogonalLoop=1;jettySize=auto;html=1;" edge="1" parent="MGQhPzTtGVglBcLO3RI9-1" source="MGQhPzTtGVglBcLO3RI9-5" target="MGQhPzTtGVglBcLO3RI9-14">
                    <mxGeometry relative="1" as="geometry">
                        <mxPoint x="490" y="120" as="targetPoint"/>
                        <Array as="points">
                            <mxPoint x="460" y="120"/>
                            <mxPoint x="460" y="430"/>
                            <mxPoint x="930" y="430"/>
                            <mxPoint x="930" y="680"/>
                        </Array>
                    </mxGeometry>
                </mxCell>
                <mxCell id="MGQhPzTtGVglBcLO3RI9-5" value="HOST" style="ellipse;whiteSpace=wrap;html=1;aspect=fixed;" vertex="1" parent="MGQhPzTtGVglBcLO3RI9-1">
                    <mxGeometry x="270" y="50" width="140" height="140" as="geometry"/>
                </mxCell>
                <mxCell id="MGQhPzTtGVglBcLO3RI9-6" style="edgeStyle=orthogonalEdgeStyle;rounded=0;orthogonalLoop=1;jettySize=auto;html=1;entryX=0;entryY=0.5;entryDx=0;entryDy=0;" edge="1" parent="MGQhPzTtGVglBcLO3RI9-1" source="MGQhPzTtGVglBcLO3RI9-8" target="MGQhPzTtGVglBcLO3RI9-21">
                    <mxGeometry relative="1" as="geometry">
                        <Array as="points">
                            <mxPoint x="1420" y="405"/>
                        </Array>
                    </mxGeometry>
                </mxCell>
                <mxCell id="MGQhPzTtGVglBcLO3RI9-7" style="edgeStyle=orthogonalEdgeStyle;rounded=0;orthogonalLoop=1;jettySize=auto;html=1;" edge="1" parent="MGQhPzTtGVglBcLO3RI9-1" source="MGQhPzTtGVglBcLO3RI9-8" target="MGQhPzTtGVglBcLO3RI9-24">
                    <mxGeometry relative="1" as="geometry">
                        <Array as="points">
                            <mxPoint x="1060" y="570"/>
                            <mxPoint x="1480" y="570"/>
                        </Array>
                    </mxGeometry>
                </mxCell>
                <mxCell id="MGQhPzTtGVglBcLO3RI9-8" value="HOME" style="ellipse;whiteSpace=wrap;html=1;aspect=fixed;" vertex="1" parent="MGQhPzTtGVglBcLO3RI9-1">
                    <mxGeometry x="1000" y="330" width="120" height="120" as="geometry"/>
                </mxCell>
                <mxCell id="MGQhPzTtGVglBcLO3RI9-9" style="edgeStyle=orthogonalEdgeStyle;rounded=0;orthogonalLoop=1;jettySize=auto;html=1;" edge="1" parent="MGQhPzTtGVglBcLO3RI9-1" source="MGQhPzTtGVglBcLO3RI9-10" target="MGQhPzTtGVglBcLO3RI9-16">
                    <mxGeometry relative="1" as="geometry">
                        <Array as="points">
                            <mxPoint x="980" y="75"/>
                            <mxPoint x="980" y="75"/>
                        </Array>
                    </mxGeometry>
                </mxCell>
                <mxCell id="MGQhPzTtGVglBcLO3RI9-10" value="PAYMENT" style="ellipse;whiteSpace=wrap;html=1;aspect=fixed;" vertex="1" parent="MGQhPzTtGVglBcLO3RI9-1">
                    <mxGeometry x="550" y="25" width="100" height="100" as="geometry"/>
                </mxCell>
                <mxCell id="MGQhPzTtGVglBcLO3RI9-11" style="edgeStyle=orthogonalEdgeStyle;rounded=0;orthogonalLoop=1;jettySize=auto;html=1;exitX=1.003;exitY=0.656;exitDx=0;exitDy=0;exitPerimeter=0;" edge="1" parent="MGQhPzTtGVglBcLO3RI9-1" source="MGQhPzTtGVglBcLO3RI9-13" target="MGQhPzTtGVglBcLO3RI9-14">
                    <mxGeometry relative="1" as="geometry">
                        <Array as="points">
                            <mxPoint x="850" y="832"/>
                            <mxPoint x="850" y="760"/>
                        </Array>
                    </mxGeometry>
                </mxCell>
                <mxCell id="MGQhPzTtGVglBcLO3RI9-12" style="edgeStyle=orthogonalEdgeStyle;rounded=0;orthogonalLoop=1;jettySize=auto;html=1;entryX=0;entryY=1;entryDx=0;entryDy=0;" edge="1" parent="MGQhPzTtGVglBcLO3RI9-1" source="MGQhPzTtGVglBcLO3RI9-13" target="MGQhPzTtGVglBcLO3RI9-16">
                    <mxGeometry relative="1" as="geometry">
                        <Array as="points">
                            <mxPoint x="760" y="770"/>
                            <mxPoint x="760" y="140"/>
                            <mxPoint x="1069" y="140"/>
                        </Array>
                    </mxGeometry>
                </mxCell>
                <mxCell id="MGQhPzTtGVglBcLO3RI9-13" value="RENTER" style="ellipse;whiteSpace=wrap;html=1;aspect=fixed;" vertex="1" parent="MGQhPzTtGVglBcLO3RI9-1">
                    <mxGeometry x="510" y="740" width="140" height="140" as="geometry"/>
                </mxCell>
                <mxCell id="MGQhPzTtGVglBcLO3RI9-14" value="REVIEW" style="ellipse;whiteSpace=wrap;html=1;aspect=fixed;" vertex="1" parent="MGQhPzTtGVglBcLO3RI9-1">
                    <mxGeometry x="1000" y="670" width="130" height="130" as="geometry"/>
                </mxCell>
                <mxCell id="MGQhPzTtGVglBcLO3RI9-15" style="edgeStyle=orthogonalEdgeStyle;rounded=0;orthogonalLoop=1;jettySize=auto;html=1;" edge="1" parent="MGQhPzTtGVglBcLO3RI9-1" source="MGQhPzTtGVglBcLO3RI9-16">
                    <mxGeometry relative="1" as="geometry">
                        <mxPoint x="1070" y="330" as="targetPoint"/>
                        <Array as="points">
                            <mxPoint x="1115" y="220"/>
                            <mxPoint x="1070" y="220"/>
                        </Array>
                    </mxGeometry>
                </mxCell>
                <mxCell id="MGQhPzTtGVglBcLO3RI9-16" value="BOOKING" style="ellipse;whiteSpace=wrap;html=1;aspect=fixed;" vertex="1" parent="MGQhPzTtGVglBcLO3RI9-1">
                    <mxGeometry x="1050" y="40" width="130" height="130" as="geometry"/>
                </mxCell>
                <mxCell id="MGQhPzTtGVglBcLO3RI9-17" style="edgeStyle=orthogonalEdgeStyle;rounded=0;orthogonalLoop=1;jettySize=auto;html=1;entryX=1;entryY=0.5;entryDx=0;entryDy=0;" edge="1" parent="MGQhPzTtGVglBcLO3RI9-1" source="MGQhPzTtGVglBcLO3RI9-18" target="MGQhPzTtGVglBcLO3RI9-51">
                    <mxGeometry relative="1" as="geometry">
                        <mxPoint x="1430" y="240" as="targetPoint"/>
                        <Array as="points">
                            <mxPoint x="1420" y="75"/>
                            <mxPoint x="1420" y="240"/>
                            <mxPoint x="1360" y="240"/>
                        </Array>
                    </mxGeometry>
                </mxCell>
                <mxCell id="MGQhPzTtGVglBcLO3RI9-18" value="&lt;div&gt;AMENITY&lt;/div&gt;" style="ellipse;whiteSpace=wrap;html=1;aspect=fixed;" vertex="1" parent="MGQhPzTtGVglBcLO3RI9-1">
                    <mxGeometry x="1435" y="30" width="90" height="90" as="geometry"/>
                </mxCell>
                <mxCell id="MGQhPzTtGVglBcLO3RI9-19" style="edgeStyle=orthogonalEdgeStyle;rounded=0;orthogonalLoop=1;jettySize=auto;html=1;" edge="1" parent="MGQhPzTtGVglBcLO3RI9-1" source="MGQhPzTtGVglBcLO3RI9-21" target="MGQhPzTtGVglBcLO3RI9-18">
                    <mxGeometry relative="1" as="geometry">
                        <Array as="points">
                            <mxPoint x="1480" y="205"/>
                            <mxPoint x="1480" y="205"/>
                        </Array>
                    </mxGeometry>
                </mxCell>
                <mxCell id="MGQhPzTtGVglBcLO3RI9-20" style="edgeStyle=orthogonalEdgeStyle;rounded=0;orthogonalLoop=1;jettySize=auto;html=1;exitX=0.254;exitY=0.039;exitDx=0;exitDy=0;exitPerimeter=0;" edge="1" parent="MGQhPzTtGVglBcLO3RI9-1" source="MGQhPzTtGVglBcLO3RI9-21" target="MGQhPzTtGVglBcLO3RI9-51">
                    <mxGeometry relative="1" as="geometry">
                        <Array as="points">
                            <mxPoint x="1430" y="345"/>
                            <mxPoint x="1430" y="240"/>
                        </Array>
                    </mxGeometry>
                </mxCell>
                <mxCell id="MGQhPzTtGVglBcLO3RI9-21" value="HOME_X_AMENITY" style="ellipse;whiteSpace=wrap;html=1;aspect=fixed;" vertex="1" parent="MGQhPzTtGVglBcLO3RI9-1">
                    <mxGeometry x="1420" y="340" width="120" height="120" as="geometry"/>
                </mxCell>
                <mxCell id="MGQhPzTtGVglBcLO3RI9-22" style="edgeStyle=orthogonalEdgeStyle;rounded=0;orthogonalLoop=1;jettySize=auto;html=1;entryX=0.3;entryY=0.933;entryDx=0;entryDy=0;entryPerimeter=0;" edge="1" parent="MGQhPzTtGVglBcLO3RI9-1" source="MGQhPzTtGVglBcLO3RI9-23" target="MGQhPzTtGVglBcLO3RI9-3">
                    <mxGeometry relative="1" as="geometry"/>
                </mxCell>
                <mxCell id="MGQhPzTtGVglBcLO3RI9-23" value="&lt;div&gt;&lt;b&gt;WALLET&lt;/b&gt;&lt;/div&gt;" style="ellipse;whiteSpace=wrap;html=1;aspect=fixed;" vertex="1" parent="MGQhPzTtGVglBcLO3RI9-1">
                    <mxGeometry x="30" y="635" width="110" height="110" as="geometry"/>
                </mxCell>
                <mxCell id="MGQhPzTtGVglBcLO3RI9-24" value="HOME_HISTORY_LOG" style="ellipse;whiteSpace=wrap;html=1;aspect=fixed;" vertex="1" parent="MGQhPzTtGVglBcLO3RI9-1">
                    <mxGeometry x="1400" y="710" width="160" height="160" as="geometry"/>
                </mxCell>
                <mxCell id="MGQhPzTtGVglBcLO3RI9-25" value="" style="endArrow=none;html=1;rounded=0;entryX=0;entryY=1;entryDx=0;entryDy=0;exitX=0.5;exitY=0;exitDx=0;exitDy=0;" edge="1" parent="MGQhPzTtGVglBcLO3RI9-1" source="MGQhPzTtGVglBcLO3RI9-3" target="MGQhPzTtGVglBcLO3RI9-5">
                    <mxGeometry relative="1" as="geometry">
                        <mxPoint x="100" y="340" as="sourcePoint"/>
                        <mxPoint x="260" y="340" as="targetPoint"/>
                    </mxGeometry>
                </mxCell>
                <mxCell id="MGQhPzTtGVglBcLO3RI9-26" value="1" style="text;html=1;align=center;verticalAlign=middle;resizable=0;points=[];autosize=1;strokeColor=none;" vertex="1" parent="MGQhPzTtGVglBcLO3RI9-1">
                    <mxGeometry x="90" y="370" width="20" height="20" as="geometry"/>
                </mxCell>
                <mxCell id="MGQhPzTtGVglBcLO3RI9-27" value="1" style="text;html=1;align=center;verticalAlign=middle;resizable=0;points=[];autosize=1;strokeColor=none;" vertex="1" parent="MGQhPzTtGVglBcLO3RI9-1">
                    <mxGeometry x="250" y="140" width="20" height="20" as="geometry"/>
                </mxCell>
                <mxCell id="MGQhPzTtGVglBcLO3RI9-28" value="" style="endArrow=none;html=1;rounded=0;entryX=0;entryY=0;entryDx=0;entryDy=0;" edge="1" parent="MGQhPzTtGVglBcLO3RI9-1" source="MGQhPzTtGVglBcLO3RI9-3" target="MGQhPzTtGVglBcLO3RI9-13">
                    <mxGeometry relative="1" as="geometry">
                        <mxPoint x="170" y="550" as="sourcePoint"/>
                        <mxPoint x="260" y="640" as="targetPoint"/>
                    </mxGeometry>
                </mxCell>
                <mxCell id="MGQhPzTtGVglBcLO3RI9-30" value="1" style="text;html=1;align=center;verticalAlign=middle;resizable=0;points=[];autosize=1;strokeColor=none;" vertex="1" parent="MGQhPzTtGVglBcLO3RI9-1">
                    <mxGeometry x="600" y="710" width="20" height="20" as="geometry"/>
                </mxCell>
                <mxCell id="MGQhPzTtGVglBcLO3RI9-31" value="1" style="text;html=1;align=center;verticalAlign=middle;resizable=0;points=[];autosize=1;strokeColor=none;" vertex="1" parent="MGQhPzTtGVglBcLO3RI9-1">
                    <mxGeometry x="650" y="810" width="20" height="20" as="geometry"/>
                </mxCell>
                <mxCell id="MGQhPzTtGVglBcLO3RI9-32" value="N" style="text;html=1;align=center;verticalAlign=middle;resizable=0;points=[];autosize=1;strokeColor=none;" vertex="1" parent="MGQhPzTtGVglBcLO3RI9-1">
                    <mxGeometry x="970" y="760" width="20" height="20" as="geometry"/>
                </mxCell>
                <mxCell id="MGQhPzTtGVglBcLO3RI9-33" value="1" style="text;html=1;align=center;verticalAlign=middle;resizable=0;points=[];autosize=1;strokeColor=none;" vertex="1" parent="MGQhPzTtGVglBcLO3RI9-1">
                    <mxGeometry x="430" y="75" width="20" height="20" as="geometry"/>
                </mxCell>
                <mxCell id="MGQhPzTtGVglBcLO3RI9-34" value="N" style="text;html=1;align=center;verticalAlign=middle;resizable=0;points=[];autosize=1;strokeColor=none;" vertex="1" parent="MGQhPzTtGVglBcLO3RI9-1">
                    <mxGeometry x="990" y="660" width="20" height="20" as="geometry"/>
                </mxCell>
                <mxCell id="MGQhPzTtGVglBcLO3RI9-35" value="1" style="text;html=1;align=center;verticalAlign=middle;resizable=0;points=[];autosize=1;strokeColor=none;" vertex="1" parent="MGQhPzTtGVglBcLO3RI9-1">
                    <mxGeometry x="510" y="720" width="20" height="20" as="geometry"/>
                </mxCell>
                <mxCell id="MGQhPzTtGVglBcLO3RI9-36" value="N" style="text;html=1;align=center;verticalAlign=middle;resizable=0;points=[];autosize=1;strokeColor=none;" vertex="1" parent="MGQhPzTtGVglBcLO3RI9-1">
                    <mxGeometry x="1020" y="120" width="20" height="20" as="geometry"/>
                </mxCell>
                <mxCell id="MGQhPzTtGVglBcLO3RI9-37" value="1" style="text;html=1;align=center;verticalAlign=middle;resizable=0;points=[];autosize=1;strokeColor=none;" vertex="1" parent="MGQhPzTtGVglBcLO3RI9-1">
                    <mxGeometry x="1080" y="300" width="20" height="20" as="geometry"/>
                </mxCell>
                <mxCell id="MGQhPzTtGVglBcLO3RI9-38" value="N" style="text;html=1;align=center;verticalAlign=middle;resizable=0;points=[];autosize=1;strokeColor=none;" vertex="1" parent="MGQhPzTtGVglBcLO3RI9-1">
                    <mxGeometry x="1136" y="177" width="20" height="20" as="geometry"/>
                </mxCell>
                <mxCell id="MGQhPzTtGVglBcLO3RI9-39" value="1" style="text;html=1;align=center;verticalAlign=middle;resizable=0;points=[];autosize=1;strokeColor=none;" vertex="1" parent="MGQhPzTtGVglBcLO3RI9-1">
                    <mxGeometry x="1123" y="415" width="20" height="20" as="geometry"/>
                </mxCell>
                <mxCell id="MGQhPzTtGVglBcLO3RI9-40" value="N" style="text;html=1;align=center;verticalAlign=middle;resizable=0;points=[];autosize=1;strokeColor=none;" vertex="1" parent="MGQhPzTtGVglBcLO3RI9-1">
                    <mxGeometry x="1390" y="415" width="20" height="20" as="geometry"/>
                </mxCell>
                <mxCell id="MGQhPzTtGVglBcLO3RI9-41" value="N" style="text;html=1;align=center;verticalAlign=middle;resizable=0;points=[];autosize=1;strokeColor=none;" vertex="1" parent="MGQhPzTtGVglBcLO3RI9-1">
                    <mxGeometry x="1490" y="320" width="20" height="20" as="geometry"/>
                </mxCell>
                <mxCell id="MGQhPzTtGVglBcLO3RI9-42" value="1" style="text;html=1;align=center;verticalAlign=middle;resizable=0;points=[];autosize=1;strokeColor=none;" vertex="1" parent="MGQhPzTtGVglBcLO3RI9-1">
                    <mxGeometry x="1490" y="125" width="20" height="20" as="geometry"/>
                </mxCell>
                <mxCell id="MGQhPzTtGVglBcLO3RI9-43" value="1" style="text;html=1;align=center;verticalAlign=middle;resizable=0;points=[];autosize=1;strokeColor=none;" vertex="1" parent="MGQhPzTtGVglBcLO3RI9-1">
                    <mxGeometry x="1010" y="450" width="20" height="20" as="geometry"/>
                </mxCell>
                <mxCell id="MGQhPzTtGVglBcLO3RI9-44" value="N" style="text;html=1;align=center;verticalAlign=middle;resizable=0;points=[];autosize=1;strokeColor=none;" vertex="1" parent="MGQhPzTtGVglBcLO3RI9-1">
                    <mxGeometry x="1420" y="680" width="20" height="20" as="geometry"/>
                </mxCell>
                <mxCell id="MGQhPzTtGVglBcLO3RI9-45" value="1" style="text;html=1;align=center;verticalAlign=middle;resizable=0;points=[];autosize=1;strokeColor=none;" vertex="1" parent="MGQhPzTtGVglBcLO3RI9-1">
                    <mxGeometry x="40" y="540" width="20" height="20" as="geometry"/>
                </mxCell>
                <mxCell id="MGQhPzTtGVglBcLO3RI9-46" value="1" style="text;html=1;align=center;verticalAlign=middle;resizable=0;points=[];autosize=1;strokeColor=none;" vertex="1" parent="MGQhPzTtGVglBcLO3RI9-1">
                    <mxGeometry x="40" y="620" width="20" height="20" as="geometry"/>
                </mxCell>
                <mxCell id="MGQhPzTtGVglBcLO3RI9-47" value="1" style="text;html=1;align=center;verticalAlign=middle;resizable=0;points=[];autosize=1;strokeColor=none;rotation=0;" vertex="1" parent="MGQhPzTtGVglBcLO3RI9-1">
                    <mxGeometry x="640" y="740" width="20" height="20" as="geometry"/>
                </mxCell>
                <mxCell id="MGQhPzTtGVglBcLO3RI9-48" value="N" style="text;html=1;align=center;verticalAlign=middle;resizable=0;points=[];autosize=1;strokeColor=none;" vertex="1" parent="MGQhPzTtGVglBcLO3RI9-1">
                    <mxGeometry x="560" y="125" width="20" height="20" as="geometry"/>
                </mxCell>
                <mxCell id="MGQhPzTtGVglBcLO3RI9-49" value="1" style="text;html=1;align=center;verticalAlign=middle;resizable=0;points=[];autosize=1;strokeColor=none;" vertex="1" parent="MGQhPzTtGVglBcLO3RI9-1">
                    <mxGeometry x="650" y="40" width="20" height="20" as="geometry"/>
                </mxCell>
                <mxCell id="MGQhPzTtGVglBcLO3RI9-50" value="1" style="text;html=1;align=center;verticalAlign=middle;resizable=0;points=[];autosize=1;strokeColor=none;" vertex="1" parent="MGQhPzTtGVglBcLO3RI9-1">
                    <mxGeometry x="1040" y="40" width="20" height="20" as="geometry"/>
                </mxCell>
                <mxCell id="MGQhPzTtGVglBcLO3RI9-51" value="HOME_X_AMENITY_HISTORY_LOG" style="ellipse;whiteSpace=wrap;html=1;aspect=fixed;" vertex="1" parent="MGQhPzTtGVglBcLO3RI9-1">
                    <mxGeometry x="1240" y="177" width="120" height="120" as="geometry"/>
                </mxCell>
            </root>
        </mxGraphModel>
    </diagram>
</mxfile>